<svg xmlns="http://www.w3.org/2000/svg" width="630.327" height="469.669" viewBox="0 0 630.327 469.669">
  <g id="Vault-rafiki" transform="translate(0 -55)">
    <g id="freepik--background-complete--inject-36" transform="translate(0 55)">
      <rect id="Rectangle_1" data-name="Rectangle 1" width="630.327" height="0.315" transform="translate(0 412.738)" fill="#f0f0f0"/>
      <rect id="Rectangle_2" data-name="Rectangle 2" width="13.212" height="0.315" transform="translate(434.32 428.622)" fill="#f0f0f0"/>
      <rect id="Rectangle_3" data-name="Rectangle 3" width="12.77" height="0.315" transform="translate(81.854 420.352)" fill="#f0f0f0"/>
      <rect id="Rectangle_4" data-name="Rectangle 4" width="38.652" height="0.315" transform="translate(193.447 428.471)" fill="#f0f0f0"/>
      <rect id="Rectangle_5" data-name="Rectangle 5" width="24.81" height="0.315" transform="translate(270.183 421.273)" fill="#f0f0f0"/>
      <rect id="Rectangle_6" data-name="Rectangle 6" width="66.109" height="0.315" transform="translate(475.493 423.277)" fill="#f0f0f0"/>
      <rect id="Rectangle_7" data-name="Rectangle 7" width="54.296" height="0.315" transform="translate(100.714 420.352)" fill="#f0f0f0"/>
      <rect id="Rectangle_8" data-name="Rectangle 8" width="20.763" height="0.315" transform="translate(548.952 423.428)" fill="#f0f0f0"/>
      <path id="Path_1" data-name="Path 1" d="M288.815,411.513H45.4a7.2,7.2,0,0,1-7.186-7.2V62.135A7.2,7.2,0,0,1,45.4,55h243.42a7.2,7.2,0,0,1,7.2,7.2V404.315A7.2,7.2,0,0,1,288.815,411.513ZM45.4,55.252a6.883,6.883,0,0,0-6.871,6.883V404.315A6.883,6.883,0,0,0,45.4,411.2h243.42a6.9,6.9,0,0,0,6.883-6.883V62.135a6.9,6.9,0,0,0-6.883-6.883Z" transform="translate(9.96 -55)" fill="#f0f0f0"/>
      <path id="Path_2" data-name="Path 2" d="M505.131,411.513H261.7a7.211,7.211,0,0,1-7.2-7.2V62.135A7.211,7.211,0,0,1,261.7,55H505.131a7.2,7.2,0,0,1,7.173,7.135V404.315A7.2,7.2,0,0,1,505.131,411.513ZM261.7,55.252a6.9,6.9,0,0,0-6.883,6.883V404.315A6.9,6.9,0,0,0,261.7,411.2H505.131a6.9,6.9,0,0,0,6.883-6.883V62.135a6.9,6.9,0,0,0-6.883-6.883Z" transform="translate(66.336 -55)" fill="#f0f0f0"/>
      <rect id="Rectangle_9" data-name="Rectangle 9" width="34.668" height="75.677" transform="translate(514.8 337.061)" fill="#e6e6e6"/>
      <path id="Path_3" data-name="Path 3" d="M432.068,386.273h6.581V367.54H425.16Z" transform="translate(110.819 26.465)" fill="#f5f5f5"/>
      <rect id="Rectangle_10" data-name="Rectangle 10" width="34.668" height="75.677" transform="translate(316.979 337.061)" fill="#ebebeb"/>
      <rect id="Rectangle_11" data-name="Rectangle 11" width="203.57" height="64.18" transform="translate(345.898 337.061)" fill="#f5f5f5"/>
      <rect id="Rectangle_12" data-name="Rectangle 12" width="34.63" height="60.347" transform="translate(352.668 377.818) rotate(-90)" fill="#e6e6e6"/>
      <path id="Path_4" data-name="Path 4" d="M313.711,332.61H301.836a18.91,18.91,0,0,1-13.716-5.9h39.307a18.91,18.91,0,0,1-13.716,5.9Z" transform="translate(75.1 15.822)" fill="#f0f0f0"/>
      <rect id="Rectangle_13" data-name="Rectangle 13" width="34.63" height="60.347" transform="translate(417.503 377.818) rotate(-90)" fill="#e6e6e6"/>
      <path id="Path_5" data-name="Path 5" d="M365.642,332.61H353.7a18.91,18.91,0,0,1-13.7-5.9h39.358a18.91,18.91,0,0,1-13.716,5.9Z" transform="translate(88.622 15.822)" fill="#f0f0f0"/>
      <rect id="Rectangle_14" data-name="Rectangle 14" width="34.63" height="60.347" transform="translate(482.351 377.831) rotate(-90)" fill="#e6e6e6"/>
      <path id="Path_6" data-name="Path 6" d="M417.084,332.61H405.146a18.91,18.91,0,0,1-13.716-5.9h39.358a18.909,18.909,0,0,1-13.7,5.9Z" transform="translate(102.028 15.822)" fill="#f0f0f0"/>
      <path id="Path_7" data-name="Path 7" d="M280.961,386.273H274.38V367.54h13.489Z" transform="translate(71.518 26.465)" fill="#f5f5f5"/>
      <rect id="Rectangle_15" data-name="Rectangle 15" width="309.541" height="166.986" transform="translate(79.257 23.94)" fill="#e6e6e6"/>
      <rect id="Rectangle_16" data-name="Rectangle 16" width="312.945" height="166.986" transform="translate(82.245 23.94)" fill="#ebebeb"/>
      <rect id="Rectangle_17" data-name="Rectangle 17" width="309.541" height="11.901" transform="translate(79.257 190.926)" fill="#e6e6e6"/>
      <rect id="Rectangle_18" data-name="Rectangle 18" width="312.945" height="11.901" transform="translate(92.91 190.926)" fill="#e6e6e6"/>
      <rect id="Rectangle_19" data-name="Rectangle 19" width="149.06" height="295.018" transform="translate(386.226 32.903) rotate(90)" fill="#fafafa"/>
      <path id="Path_8" data-name="Path 8" d="M85.95,230.16,138.57,81.1H163.4l-52.62,149.06Z" transform="translate(22.403 -48.197)" fill="#fff"/>
      <path id="Path_9" data-name="Path 9" d="M75.781,178.572a.681.681,0,0,1-.681-.681V85.863a.687.687,0,1,1,1.374,0v92.028a.693.693,0,0,1-.693.681Z" transform="translate(19.575 -47.136)" fill="#e6e6e6"/>
      <path id="Path_10" data-name="Path 10" d="M109.89,230.16,162.5,81.1h9.682L119.572,230.16Z" transform="translate(28.643 -48.197)" fill="#fff"/>
      <rect id="Rectangle_20" data-name="Rectangle 20" width="149.06" height="1.135" transform="translate(386.226 32.903) rotate(90)" fill="#e6e6e6"/>
      <path id="Path_11" data-name="Path 11" d="M379.33,91.853H69.8L68.97,83.86H378.511Z" transform="translate(17.977 -47.478)" fill="#ebebeb"/>
      <path id="Path_12" data-name="Path 12" d="M379.33,96.48H69.8L68.97,88.5H378.511Z" transform="translate(17.977 -46.268)" fill="#ebebeb"/>
      <path id="Path_13" data-name="Path 13" d="M379.33,102.053H69.8L68.97,94.06H378.511Z" transform="translate(17.977 -44.819)" fill="#ebebeb"/>
      <path id="Path_14" data-name="Path 14" d="M379.33,108.243H69.8l-.832-7.993H378.511Z" transform="translate(17.977 -43.205)" fill="#ebebeb"/>
      <path id="Path_15" data-name="Path 15" d="M379.33,115.65H69.8l-.832-7.98H378.511Z" transform="translate(17.977 -41.271)" fill="#e6e6e6"/>
      <path id="Path_16" data-name="Path 16" d="M379.33,124H69.8l-.832-7.98H378.511Z" transform="translate(17.977 -39.095)" fill="#e6e6e6"/>
      <rect id="Rectangle_21" data-name="Rectangle 21" width="43.177" height="49.745" transform="translate(431.446 94.549)" fill="#ebebeb"/>
      <rect id="Rectangle_22" data-name="Rectangle 22" width="46.795" height="49.745" transform="translate(436.564 94.549)" fill="#f5f5f5"/>
      <rect id="Rectangle_23" data-name="Rectangle 23" width="41.904" height="38.954" transform="translate(479.439 98.47) rotate(90)" fill="#fff"/>
      <rect id="Rectangle_24" data-name="Rectangle 24" width="21.595" height="20.07" rx="2.73" transform="translate(469.997 108.63) rotate(90)" fill="#fafafa"/>
      <rect id="Rectangle_25" data-name="Rectangle 25" width="43.177" height="49.745" transform="translate(496.609 72.677)" fill="#ebebeb"/>
      <rect id="Rectangle_26" data-name="Rectangle 26" width="46.795" height="49.745" transform="translate(501.728 72.677)" fill="#f5f5f5"/>
      <rect id="Rectangle_27" data-name="Rectangle 27" width="41.904" height="38.954" transform="translate(544.59 76.597) rotate(90)" fill="#fff"/>
      <rect id="Rectangle_28" data-name="Rectangle 28" width="21.582" height="20.07" rx="2.73" transform="translate(535.147 86.758) rotate(90)" fill="#fafafa"/>
      <rect id="Rectangle_29" data-name="Rectangle 29" width="70.042" height="147.156" transform="translate(258.144 265.582)" fill="#e6e6e6"/>
      <path id="Path_17" data-name="Path 17" d="M256.28,386.544h7.034V366.5H248.88Z" transform="translate(64.871 26.194)" fill="#e6e6e6"/>
      <rect id="Rectangle_30" data-name="Rectangle 30" width="70.042" height="147.156" transform="translate(85.851 265.582)" fill="#e6e6e6"/>
      <rect id="Rectangle_31" data-name="Rectangle 31" width="178.446" height="134.865" transform="translate(149.74 265.582)" fill="#f5f5f5"/>
      <rect id="Rectangle_32" data-name="Rectangle 32" width="167.516" height="36.988" transform="translate(153.724 271.557)" fill="#e6e6e6"/>
      <path id="Path_18" data-name="Path 18" d="M202.857,282.137H187.036c-6.871,0-13.439-4.564-18.166-12.607h52.166C216.308,277.573,209.74,282.137,202.857,282.137Z" transform="translate(44.017 0.918)" fill="#f5f5f5"/>
      <path id="Path_19" data-name="Path 19" d="M125.827,386.544H118.78V366.5h14.434Z" transform="translate(30.96 26.194)" fill="#e6e6e6"/>
      <rect id="Rectangle_33" data-name="Rectangle 33" width="167.516" height="36.988" transform="translate(153.724 314.52)" fill="#e6e6e6"/>
      <path id="Path_20" data-name="Path 20" d="M202.857,316.207H187.036c-6.871,0-13.439-4.564-18.166-12.607h52.166C216.308,311.668,209.74,316.207,202.857,316.207Z" transform="translate(44.017 9.798)" fill="#f5f5f5"/>
      <rect id="Rectangle_34" data-name="Rectangle 34" width="167.516" height="36.988" transform="translate(153.724 357.484)" fill="#e6e6e6"/>
      <path id="Path_21" data-name="Path 21" d="M202.857,350.287H187.036c-6.871,0-13.439-4.564-18.166-12.607h52.166C216.308,345.723,209.74,350.287,202.857,350.287Z" transform="translate(44.017 18.682)" fill="#f5f5f5"/>
      <path id="Path_22" data-name="Path 22" d="M383.1,329.88h2.093c0-4.3,0-15.229.227-40.265.366-45.384,1.1-48.144,1.1-48.144l-4.98,20.952C378.372,285.618,382.432,308.953,383.1,329.88Z" transform="translate(99.138 -6.396)" fill="#e6e6e6"/>
      <path id="Path_23" data-name="Path 23" d="M386.681,254.658c-10.955-10.829-32.348-12.279-54.208-13.186-8.572-.353,23.952,16.124,40.253,28.466,12.607,9.581,20.385,11.838,24.583,22.175C397.8,278.7,396.123,263.986,386.681,254.658Z" transform="translate(86.291 -6.397)" fill="#e6e6e6"/>
      <path id="Path_24" data-name="Path 24" d="M385.788,239.975c7.425-14.107,26.108-27.394,47.073-32.424,8.219-1.979-19.074,26.045-29.449,44.123-8.056,14.044-18.746,30.533-20.4,42.383C380.506,270.571,378.362,254.081,385.788,239.975Z" transform="translate(99.223 -15.263)" fill="#e6e6e6"/>
      <path id="Path_25" data-name="Path 25" d="M387.1,327.627h0a13.779,13.779,0,0,1-13.741-12.985L372.1,302.2h29.915l-1.261,12.443A13.792,13.792,0,0,1,387.1,327.627Z" transform="translate(96.989 9.434)" fill="#f0f0f0"/>
      <path id="Path_26" data-name="Path 26" d="M404.569,308.867h-33.8L369.8,295h35.74Z" transform="translate(96.39 7.557)" fill="#f5f5f5"/>
    </g>
    <g id="freepik--Shadow--inject-36" transform="translate(70.735 496.128)">
      <ellipse id="Ellipse_1" data-name="Ellipse 1" cx="244.428" cy="14.271" rx="244.428" ry="14.271" fill="#f5f5f5"/>
    </g>
    <g id="freepik--Shield--inject-36" transform="translate(309.428 143.948)" class="svg_shield">
      <path id="Path_27" data-name="Path 27" d="M245.463,147.307c1.715,21.431,26.474,49.266,34.391,57.688a3.328,3.328,0,0,0,4.866,0c7.942-8.421,32.676-36.269,34.391-57.687a3.391,3.391,0,0,0-1.752-3.278l-33.483-18.065a3.3,3.3,0,0,0-3.177,0l-33.483,18.065a3.416,3.416,0,0,0-1.752,3.278Z" transform="translate(-245.45 -125.557)" fill="#407bff"/>
      <path id="Path_28" data-name="Path 28" d="M278.548,195.669c-10.085-11.346-24.709-30.42-28.2-45.6a3.391,3.391,0,0,1,1.614-3.681l27.407-15.758a3.366,3.366,0,0,1,3.341,0l27.407,15.708a3.378,3.378,0,0,1,1.588,3.782c-3.479,15.2-18.053,34.2-28.188,45.6a3.315,3.315,0,0,1-4.967-.05Z" transform="translate(-244.196 -124.35)" fill="#407bff" opacity="0.3"/>
      <path id="Path_29" data-name="Path 29" d="M278.548,195.669c-10.085-11.346-24.709-30.42-28.2-45.6a3.391,3.391,0,0,1,1.614-3.681l27.407-15.758a3.366,3.366,0,0,1,3.341,0l27.407,15.708a3.378,3.378,0,0,1,1.588,3.782c-3.479,15.2-18.053,34.2-28.188,45.6a3.315,3.315,0,0,1-4.967-.05Z" transform="translate(-244.196 -124.35)" fill="#fff" opacity="0.3"/>
      <path id="Path_30" data-name="Path 30" d="M274.023,168.844a1.878,1.878,0,0,1-1.336-.555l-9.341-9.379a1.891,1.891,0,0,1,2.673-2.673l8.005,7.993,18.91-18.847a1.9,1.9,0,0,1,2.673,0,1.878,1.878,0,0,1,0,2.673l-20.17,20.17a1.929,1.929,0,0,1-1.412.618Z" transform="translate(-240.918 -120.532)" fill="#fff"/>
    </g>
    <g id="freepik--Vault--inject-36" transform="translate(231.96 243.253)">
      <rect id="Rectangle_35" data-name="Rectangle 35" width="205.071" height="259.569" rx="12" fill="#263238"/>
      <rect id="Rectangle_36" data-name="Rectangle 36" width="205.071" height="259.569" rx="12" transform="translate(11.774)" fill="#407bff"/>
      <rect id="Rectangle_37" data-name="Rectangle 37" width="18.91" height="4.627" rx="0.75" transform="translate(29.638 259.581)" fill="#263238"/>
      <rect id="Rectangle_38" data-name="Rectangle 38" width="18.91" height="4.627" rx="0.75" transform="translate(180.059 259.581)" fill="#263238"/>
      <rect id="Rectangle_39" data-name="Rectangle 39" width="205.071" height="259.569" rx="12" transform="translate(11.774)" opacity="0.2"/>
      <path id="Path_31" data-name="Path 31" d="M356.493,427.78H222.864a5.787,5.787,0,0,1-5.774-5.774V233.866a5.786,5.786,0,0,1,5.774-5.786H356.493a5.786,5.786,0,0,1,5.774,5.786v188.14a5.786,5.786,0,0,1-5.774,5.774ZM222.864,228.71a5.156,5.156,0,0,0-5.143,5.156v188.14a5.143,5.143,0,0,0,5.143,5.143H356.493a5.143,5.143,0,0,0,5.143-5.143V233.866a5.156,5.156,0,0,0-5.143-5.156Z" transform="translate(-175.375 -198.139)" fill="#e6e6e6" opacity="0.4" style="mix-blend-mode: color-dodge;isolation: isolate"/>
      <rect id="Rectangle_40" data-name="Rectangle 40" width="194.027" height="139.517" rx="2.33" transform="translate(184.068 32.777) rotate(90)" fill="#407bff"/>
      <rect id="Rectangle_41" data-name="Rectangle 41" width="194.027" height="139.517" rx="2.33" transform="translate(184.068 32.777) rotate(90)" fill="#fff" opacity="0.1"/>
      <rect id="Rectangle_42" data-name="Rectangle 42" width="1.261" height="10.64" transform="translate(219.984 53.515)" fill="#407bff"/>
      <rect id="Rectangle_43" data-name="Rectangle 43" width="1.261" height="27.18" transform="translate(219.984 15.128)" fill="#407bff"/>
      <circle id="Ellipse_2" data-name="Ellipse 2" cx="42.988" cy="42.988" r="42.988" transform="translate(71.315 90.477)" opacity="0.1"/>
      <circle id="Ellipse_3" data-name="Ellipse 3" cx="10.501" cy="10.501" r="10.501" transform="translate(103.802 48.623)" fill="#407bff"/>
      <circle id="Ellipse_4" data-name="Ellipse 4" cx="10.501" cy="10.501" r="10.501" transform="translate(103.739 48.598)" fill="#fff" opacity="0.6"/>
      <path id="Path_32" data-name="Path 32" d="M276.385,261.24a8.3,8.3,0,1,1,8.3-8.3,8.3,8.3,0,0,1-8.3,8.3Zm0-15.96a7.665,7.665,0,1,0,7.665,7.665A7.665,7.665,0,0,0,276.385,245.28Z" transform="translate(-162.082 -193.82)" fill="#407bff"/>
      <rect id="Rectangle_44" data-name="Rectangle 44" width="8.409" height="29.323" rx="1.48" transform="translate(37.832 57.486)" fill="#407bff"/>
      <rect id="Rectangle_45" data-name="Rectangle 45" width="8.409" height="29.323" rx="1.48" transform="translate(37.832 57.486)" fill="#fff" opacity="0.6"/>
      <rect id="Rectangle_46" data-name="Rectangle 46" width="8.409" height="29.323" rx="1.48" transform="translate(37.832 172.773)" fill="#407bff"/>
      <rect id="Rectangle_47" data-name="Rectangle 47" width="8.409" height="29.323" rx="1.48" transform="translate(37.832 172.773)" fill="#fff" opacity="0.6"/>
      <circle id="Ellipse_5" data-name="Ellipse 5" cx="42.988" cy="42.988" r="42.988" transform="translate(71.315 86.809)" fill="#407bff"/>
      <circle id="Ellipse_6" data-name="Ellipse 6" cx="42.988" cy="42.988" r="42.988" transform="translate(71.315 86.809)" fill="#fff" opacity="0.6"/>
      <rect id="Rectangle_48" data-name="Rectangle 48" width="2.521" height="62.705" transform="translate(91.255 108.514) rotate(-45)" fill="#407bff"/>
      <rect id="Rectangle_49" data-name="Rectangle 49" width="62.705" height="2.521" transform="translate(91.255 151.07) rotate(-45)" fill="#407bff"/>
      <rect id="Rectangle_50" data-name="Rectangle 50" width="62.705" height="2.521" transform="translate(91.109 150.926) rotate(-45)" opacity="0.2"/>
      <rect id="Rectangle_51" data-name="Rectangle 51" width="2.521" height="62.705" transform="translate(91.118 108.379) rotate(-45)" opacity="0.2"/>
      <path id="Path_33" data-name="Path 33" d="M281.321,346.557a32.638,32.638,0,1,1,32.626-32.634A32.638,32.638,0,0,1,281.321,346.557Zm0-62.755a30.117,30.117,0,1,0,30.1,30.113,30.117,30.117,0,0,0-30.1-30.113Z" transform="translate(-167.144 -184.273)" fill="#407bff"/>
      <circle id="Ellipse_7" data-name="Ellipse 7" cx="13.653" cy="13.653" r="13.653" transform="translate(94.862 129.648) rotate(-45)" fill="#407bff"/>
      <path id="Path_34" data-name="Path 34" d="M281.321,346.557a32.638,32.638,0,1,1,32.626-32.634A32.638,32.638,0,0,1,281.321,346.557Zm0-62.755a30.117,30.117,0,1,0,30.1,30.113,30.117,30.117,0,0,0-30.1-30.113Z" transform="translate(-167.144 -184.273)" opacity="0.2"/>
      <circle id="Ellipse_8" data-name="Ellipse 8" cx="13.653" cy="13.653" r="13.653" transform="translate(94.862 129.648) rotate(-45)" opacity="0.2"/>
    </g>
    <g id="freepik--Character--inject-36" transform="translate(162.77 113.5)">
      <path id="Path_35" data-name="Path 35" d="M193.713,162.76c3.038,7.047,6.177,14.182,9.354,21.2S209.5,198,212.976,204.689c.9,1.639,1.752,3.341,2.685,4.891l.681,1.185.353.593a.578.578,0,0,0-.126-.126c-.151-.088,0,.088.3.3a11.837,11.837,0,0,0,3.706,1.261,46.278,46.278,0,0,0,5.043.656c3.568.24,7.337.24,11.119.126l5.723-.24,5.7-.378,1.475,6.858a98.6,98.6,0,0,1-24.053,4.816,44.991,44.991,0,0,1-6.631-.063,23.676,23.676,0,0,1-7.564-1.79,13.211,13.211,0,0,1-4.4-3.126,11.345,11.345,0,0,1-1.021-1.261l-.441-.656-.857-1.261c-1.2-1.74-2.206-3.479-3.29-5.232-4.085-7-7.74-14.082-11.169-21.229s-6.618-14.359-9.619-21.759Z" transform="translate(-115.699 -85.412)" fill="#7f3e3b"/>
      <path id="Path_36" data-name="Path 36" d="M177.788,163.374c-2.862,8.371,13.955,32.991,13.955,32.991l16.111-8.925A189,189,0,0,0,198.185,165C192.5,154.347,180.927,154.183,177.788,163.374Z" transform="translate(-116.515 -86.984)" fill="#407bff"/>
      <path id="Path_37" data-name="Path 37" d="M177.788,163.374c-2.862,8.371,13.955,32.991,13.955,32.991l16.111-8.925A189,189,0,0,0,198.185,165C192.5,154.347,180.927,154.183,177.788,163.374Z" transform="translate(-116.515 -86.984)" fill="#fff" opacity="0.5"/>
      <path id="Path_38" data-name="Path 38" d="M177.547,162.967c3.605-1.727,7.766-.277,12.127,6.631s8.093,18.443,8.509,21.734l-6.442,3.568S176.211,172.157,177.547,162.967Z" transform="translate(-116.513 -85.531)" fill="#407bff"/>
      <path id="Path_39" data-name="Path 39" d="M177.547,162.967c3.605-1.727,7.766-.277,12.127,6.631s8.093,18.443,8.509,21.734l-6.442,3.568S176.211,172.157,177.547,162.967Z" transform="translate(-116.513 -85.531)" fill="#fff" opacity="0.4"/>
      <path id="Path_40" data-name="Path 40" d="M197.18,157.52s12,28.226,3.341,80.783H150.549c-.618-7.677,2.912-45.106-5.749-81.262a127.631,127.631,0,0,1,16.641-2.118,186.43,186.43,0,0,1,21.242,0A96.379,96.379,0,0,1,197.18,157.52Z" transform="translate(-125.028 -87.534)" fill="#407bff"/>
      <path id="Path_41" data-name="Path 41" d="M197.18,157.52s12,28.226,3.341,80.783H150.549c-.618-7.677,2.912-45.106-5.749-81.262a127.631,127.631,0,0,1,16.641-2.118,186.43,186.43,0,0,1,21.242,0A96.379,96.379,0,0,1,197.18,157.52Z" transform="translate(-125.028 -87.534)" fill="#fff" opacity="0.5"/>
      <path id="Path_42" data-name="Path 42" d="M155.8,164.759c1.034,5.95-.34,20.17-5.446,36.635a240.383,240.383,0,0,0-4.9-41.967v-.076C148.728,159.023,154.8,159.175,155.8,164.759Z" transform="translate(-124.858 -86.327)" fill="#407bff"/>
      <path id="Path_43" data-name="Path 43" d="M155.8,164.759c1.034,5.95-.34,20.17-5.446,36.635a240.383,240.383,0,0,0-4.9-41.967v-.076C148.728,159.023,154.8,159.175,155.8,164.759Z" transform="translate(-124.858 -86.327)" fill="#fff" opacity="0.4"/>
      <path id="Path_44" data-name="Path 44" d="M135.31,401.667l7.413,6.631,14.107-14.687-7.413-6.631Z" transform="translate(-127.501 -26.969)" fill="#7f3e3b"/>
      <path id="Path_45" data-name="Path 45" d="M146.379,403.063l-9-6.026a.832.832,0,0,0-1.034,0l-6.883,6.946a1.387,1.387,0,0,0,.328,2.105c5.749,4.425,9.9,7.766,13.174,11.447,3.782,4.3,5.824,4.917,14.649,4.917,4.085,0,6.392-3.442,4.727-3.971-14.7-4.652-10.766-6.681-14.346-13.5a4.9,4.9,0,0,0-1.614-1.916Z" transform="translate(-129.116 -24.394)" fill="#263238"/>
      <path id="Path_46" data-name="Path 46" d="M155.4,393.611l-7.261,7.577-7.413-6.644,7.261-7.564Z" transform="translate(-126.088 -26.969)" fill="#5e2b2b"/>
      <path id="Path_47" data-name="Path 47" d="M156.54,392.41h9.341l-.63,11.157H155.91Z" transform="translate(-122.132 -25.553)" fill="#5e2b2b"/>
      <path id="Path_48" data-name="Path 48" d="M201.592,221.008s9.846,68.151,13.2,105.239c2.7,29.764-61.659,118.5-61.659,118.5L140.69,433.037s47-79.56,43.379-112.69c-3.492-32.084-15.38-99.377-15.38-99.377Z" transform="translate(-126.099 -70.24)" fill="#407bff"/>
      <path id="Path_49" data-name="Path 49" d="M201.592,221.008s9.846,68.151,13.2,105.239c2.7,29.764-61.659,118.5-61.659,118.5L140.69,433.037s47-79.56,43.379-112.69c-3.492-32.084-15.38-99.377-15.38-99.377Z" transform="translate(-126.099 -70.24)" opacity="0.5"/>
      <path id="Path_50" data-name="Path 50" d="M155.44,414.043h9.354L166,392.41h-9.341Z" transform="translate(-122.254 -25.553)" fill="#7f3e3b"/>
      <path id="Path_51" data-name="Path 51" d="M165.671,408.72h-10.5a.668.668,0,0,0-.693.63l-.517,8.308a1.651,1.651,0,0,0,1.639,1.664c3.656-.063,5.408-.277,10.085-.277,2.836,0,14.914.3,18.847.3s3.782-3.883,2.143-4.236c-7.45-1.576-16.691-3.782-19.338-5.824a2.635,2.635,0,0,0-1.664-.567Z" transform="translate(-122.64 -21.302)" fill="#263238"/>
      <path id="Path_52" data-name="Path 52" d="M232.768,203.624l8.585-3.4,2.093,8.825s-9.8,2.925-11.346.1Z" transform="translate(-102.273 -75.648)" fill="#7f3e3b"/>
      <path id="Path_53" data-name="Path 53" d="M246.714,202l2.521,4.828-7.7,2.194-2.093-8.8Z" transform="translate(-100.359 -75.648)" fill="#7f3e3b"/>
      <path id="Path_54" data-name="Path 54" d="M181.565,155.107l-2.042-.214a186.458,186.458,0,0,0-21.242,0l-1.261.076.113.34c.1.265,2.446,6.5,15.9,6.5,5.862,0,8.925-.971,9.631-3.076A3.87,3.87,0,0,0,181.565,155.107Z" transform="translate(-121.842 -87.542)" fill="#e6e6e6"/>
      <path id="Path_55" data-name="Path 55" d="M159.261,135.88c1.576,6.833,3.353,19.364-1.261,23.952,0,0,1.992,5.66,14.7,5.66,13.968,0,6.543-5.66,6.543-5.66-7.69-1.815-7.677-7.476-6.543-12.783Z" transform="translate(-121.587 -92.419)" fill="#7f3e3b"/>
      <path id="Path_56" data-name="Path 56" d="M163.408,139.49l7.955,6.581a21.872,21.872,0,0,0-.529,3.782c-2.925-.416-7.034-3.618-7.45-6.669A9.934,9.934,0,0,1,163.408,139.49Z" transform="translate(-120.226 -91.478)" fill="#5e2b2b"/>
      <path id="Path_57" data-name="Path 57" d="M176.087,119.9c4.248,2.748,4.854,15.96-1.362,17.851S168.044,114.7,176.087,119.9Z" transform="translate(-118.445 -96.771)" fill="#263238"/>
      <path id="Path_58" data-name="Path 58" d="M156.8,133.548c2.849,8.825,4.059,14.157,9.808,17.775a12.09,12.09,0,0,0,18.62-10.564c-.113-8.484-4.753-21.545-14.523-23.183a12.241,12.241,0,0,0-13.9,15.972Z" transform="translate(-122.072 -97.248)" fill="#7f3e3b"/>
      <path id="Path_59" data-name="Path 59" d="M149.113,129.4c3.051,5.534,10.716,18.141,14.4,16.88s3.694-11.346-1.034-17.737c0,0,37.454,3.782,38.21-17.5.769-21.771-17.271-.706-33.143,5.383C150.273,123.107,141.94,116.375,149.113,129.4Z" transform="translate(-124.575 -101.405)" fill="#263238"/>
      <path id="Path_60" data-name="Path 60" d="M149.9,121.668a.315.315,0,0,1,0-.618c.567-.126,1.185-.24,1.853-.366a59.818,59.818,0,0,0,14.573-4.337c4.727-2.118,9.682-5.749,14.069-8.951a93.764,93.764,0,0,1,8.7-5.9.328.328,0,0,1,.429.126.315.315,0,0,1-.126.429,92.6,92.6,0,0,0-8.635,5.862c-4.4,3.215-9.392,6.858-14.182,9.014a60.209,60.209,0,0,1-14.7,4.374c-.668.126-1.261.24-1.853.366Z" transform="translate(-123.764 -101.39)" fill="#263238"/>
      <path id="Path_61" data-name="Path 61" d="M155.717,140.156a9.228,9.228,0,0,0,6.3,2.61c3.126,0,3.782-2.95,2.105-5.421-1.488-2.219-4.891-4.891-7.64-3.694S153.649,138.127,155.717,140.156Z" transform="translate(-122.556 -93.077)" fill="#7f3e3b"/>
      <path id="Path_62" data-name="Path 62" d="M181.916,315.209c-1.8-16.527-5.837-42.421-9.3-63.625,1.815-3.555,6.908-10.753,6.908-10.753,4.564,15.771,14.485,75.223.328,155.514-14.75,23.776-28.869,43.266-28.869,43.266L149,408.951C162.678,383.309,184.424,338.115,181.916,315.209Z" transform="translate(-123.933 -65.063)" opacity="0.2"/>
      <path id="Path_63" data-name="Path 63" d="M168.065,130.127c.189.731.731,1.261,1.261,1.135s.719-.794.529-1.525-.731-1.261-1.261-1.122S167.876,129.4,168.065,130.127Z" transform="translate(-118.982 -94.318)" fill="#263238"/>
      <path id="Path_64" data-name="Path 64" d="M174.665,128.677c.189.731.731,1.261,1.261,1.135s.719-.782.529-1.513-.719-1.261-1.261-1.135S174.476,127.945,174.665,128.677Z" transform="translate(-117.262 -94.696)" fill="#263238"/>
      <path id="Path_65" data-name="Path 65" d="M172.63,129.11a28.453,28.453,0,0,0,5.106,5.484,4.311,4.311,0,0,1-3.353,1.425Z" transform="translate(-117.774 -94.183)" fill="#630f0f"/>
      <path id="Path_66" data-name="Path 66" d="M172.382,137.091a6.4,6.4,0,0,1-4.2-1.513.218.218,0,1,1,.3-.315,6.3,6.3,0,0,0,5.345,1.261.22.22,0,0,1,.1.429A6.972,6.972,0,0,1,172.382,137.091Z" transform="translate(-118.95 -92.596)" fill="#263238"/>
      <path id="Path_67" data-name="Path 67" d="M165.522,128.782a.441.441,0,0,1-.176,0,.429.429,0,0,1-.227-.58,4.261,4.261,0,0,1,3.076-2.521.466.466,0,0,1,.5.378.441.441,0,0,1-.378.5,3.391,3.391,0,0,0-2.4,2.03A.429.429,0,0,1,165.522,128.782Z" transform="translate(-119.742 -95.078)" fill="#263238"/>
      <path id="Path_68" data-name="Path 68" d="M177.66,126a.429.429,0,0,1-.34-.164,3.782,3.782,0,0,0-2.95-1.412.443.443,0,1,1-.076-.882A4.639,4.639,0,0,1,178,125.267a.454.454,0,0,1-.063.63.441.441,0,0,1-.277.1Z" transform="translate(-117.445 -95.635)" fill="#263238"/>
      <path id="Path_69" data-name="Path 69" d="M154.334,205.691a35.978,35.978,0,0,1-7.186-3.341,7.867,7.867,0,0,1-1.362-1.1c.58-2.71,1.336-5.433,2.156-8.169s1.828-5.534,2.874-8.3,2.156-5.509,3.316-8.232c.58-1.362,1.172-2.723,1.778-4.072l1.815-3.921-12.607-6.455c-.832,1.576-1.513,2.963-2.194,4.463s-1.261,2.95-1.941,4.438q-1.866,4.488-3.4,9.089a98.332,98.332,0,0,0-4.475,19.288v1a9.783,9.783,0,0,0,0,1.361,11.422,11.422,0,0,0,.479,2.7,11.964,11.964,0,0,0,2.37,4.2,18.078,18.078,0,0,0,5.547,4.1,40.921,40.921,0,0,0,10.148,3.253,88.672,88.672,0,0,0,19.4,1.513l.58-7a155.343,155.343,0,0,1-17.3-4.816Z" transform="translate(-128.082 -85.582)" fill="#7f3e3b"/>
      <path id="Path_70" data-name="Path 70" d="M166.436,410.484a11.991,11.991,0,0,1-2.521-.328.265.265,0,0,1-.164-.164.227.227,0,0,1,.088-.214c.3-.214,2.95-2.017,4.085-1.563a.807.807,0,0,1,.5.605,1.261,1.261,0,0,1-.277,1.172,2.521,2.521,0,0,1-1.714.492Zm-1.916-.63c1.677.328,2.925.277,3.366-.151a.832.832,0,0,0,.151-.794.4.4,0,0,0-.24-.3C167.129,408.341,165.465,409.224,164.52,409.854Z" transform="translate(-120.089 -21.453)" fill="#407bff"/>
      <path id="Path_71" data-name="Path 71" d="M163.989,410.6a.151.151,0,0,1-.1,0,.2.2,0,0,1-.113-.164c0-.113-.214-2.8.731-3.706a1.084,1.084,0,0,1,.908-.3.832.832,0,0,1,.782.656c.214,1.021-1.172,2.963-2.105,3.517Zm1.261-3.782a.643.643,0,0,0-.466.189,4.891,4.891,0,0,0-.618,2.988c.769-.656,1.765-2.143,1.614-2.849,0-.139-.1-.29-.429-.328Z" transform="translate(-120.087 -21.901)" fill="#407bff"/>
      <path id="Path_72" data-name="Path 72" d="M148.607,406.254a11.636,11.636,0,0,1-4.664-1.8.189.189,0,0,1-.1-.227.227.227,0,0,1,.189-.164c.5,0,4.929-.328,5.761.681a.643.643,0,0,1,.139.618,1.109,1.109,0,0,1-.656.782,1.9,1.9,0,0,1-.668.113Zm-3.845-1.815c2.03,1.122,3.631,1.614,4.349,1.261a.693.693,0,0,0,.416-.492.252.252,0,0,0,0-.252c-.517-.5-2.962-.592-4.765-.517Z" transform="translate(-125.28 -22.53)" fill="#407bff"/>
      <path id="Path_73" data-name="Path 73" d="M144.041,405.015a.215.215,0,0,1-.176-.1.227.227,0,0,1,0-.2c.076-.151,1.752-3.568,3.908-2.521.592.29.643.63.592.87-.214,1.021-3.013,1.941-4.3,1.979Zm2.912-2.61c-1.16,0-2.156,1.475-2.521,2.156,1.349-.164,3.416-1.009,3.542-1.614,0-.126-.1-.265-.378-.4A1.374,1.374,0,0,0,146.953,402.405Z" transform="translate(-125.278 -23.056)" fill="#407bff"/>
      <path id="Path_74" data-name="Path 74" d="M162.659,200.855l7.677-2.105,1.046,9.694s-7.564,2.269-9.442-1.7Z" transform="translate(-120.56 -76.031)" fill="#7f3e3b"/>
      <path id="Path_75" data-name="Path 75" d="M162.39,201.9a10.085,10.085,0,0,0,2.66-6.366l1.967,1.072s.391,4.349-.378,5.6S162.39,201.9,162.39,201.9Z" transform="translate(-120.443 -76.871)" fill="#7f3e3b"/>
      <path id="Path_76" data-name="Path 76" d="M172.2,199.708l-.466,8.736h-2.08l-1.059-9.694Z" transform="translate(-118.827 -76.031)" fill="#7f3e3b"/>
      <path id="Path_77" data-name="Path 77" d="M140.1,389.95l13.955,13.136,4.5-4.828L142.584,383.71Z" transform="translate(-126.253 -27.821)" fill="#407bff"/>
      <path id="Path_78" data-name="Path 78" d="M140.1,389.95l13.955,13.136,4.5-4.828L142.584,383.71Z" transform="translate(-126.253 -27.821)" opacity="0.1"/>
      <path id="Path_79" data-name="Path 79" d="M181.58,221s.882,71.416-.63,98.18c-1.651,29.3-9.972,126.381-9.972,126.381h-17.12s.517-94.713-.517-123.721c-1.122-31.516-4.021-100.852-4.021-100.852Z" transform="translate(-123.849 -70.235)" fill="#407bff"/>
      <path id="Path_80" data-name="Path 80" d="M181.58,221s.882,71.416-.63,98.18c-1.651,29.3-9.972,126.381-9.972,126.381h-17.12s.517-94.713-.517-123.721c-1.122-31.516-4.021-100.852-4.021-100.852Z" transform="translate(-123.849 -70.235)" opacity="0.5"/>
      <path id="Path_81" data-name="Path 81" d="M152.565,400.475h18.494l1.021-6.5-20.41,1.021Z" transform="translate(-123.237 -25.147)" fill="#407bff"/>
      <path id="Path_82" data-name="Path 82" d="M152.565,400.475h18.494l1.021-6.5-20.41,1.021Z" transform="translate(-123.237 -25.147)" opacity="0.1"/>
      <path id="Path_83" data-name="Path 83" d="M148.493,156.576c-8.825,1.261-17.863,33.672-17.863,33.672l21.267,8.093s5.345-13.867,9-24.747C164.731,162.261,157.936,155.189,148.493,156.576Z" transform="translate(-128.721 -87.069)" fill="#407bff"/>
      <path id="Path_84" data-name="Path 84" d="M148.493,156.576c-8.825,1.261-17.863,33.672-17.863,33.672l21.267,8.093s5.345-13.867,9-24.747C164.731,162.261,157.936,155.189,148.493,156.576Z" transform="translate(-128.721 -87.069)" fill="#fff" opacity="0.5"/>
    </g>
  </g>
</svg>
