<svg xmlns="http://www.w3.org/2000/svg" width="387.78" height="340.57" viewBox="0 0 387.78 340.57">
  <g id="Messaging-rafiki" transform="translate(-56.11 -86.99)">
    <g id="freepik--background-simple--inject-31">
      <path id="Path_461" data-name="Path 461" d="M210.17,182.16c53.88,58.12,180.81,9.36,181.69,120.23.85,106.23-139.23,97.32-208.53,72.86C103,346.9,40.49,272.25,67.84,186.12c10.57-33.26,33.28-65.25,70.92-69.93C198.9,108.72,181.61,151.35,210.17,182.16Z" fill="#407bff"/>
      <path id="Path_462" data-name="Path 462" d="M210.17,182.16c53.88,58.12,180.81,9.36,181.69,120.23.85,106.23-139.23,97.32-208.53,72.86C103,346.9,40.49,272.25,67.84,186.12c10.57-33.26,33.28-65.25,70.92-69.93C198.9,108.72,181.61,151.35,210.17,182.16Z" fill="#fff" opacity="0.9"/>
    </g>
    <g id="freepik--Shadow--inject-31">
      <ellipse id="freepik--path--inject-31" cx="193.89" cy="11.32" rx="193.89" ry="11.32" transform="translate(56.11 404.92)" fill="#f5f5f5"/>
    </g>
    <g id="freepik--Smartphone--inject-31">
      <rect id="Rectangle_72" data-name="Rectangle 72" width="155.9" height="325.33" rx="15.79" transform="translate(184.19 90.49)" fill="#407bff"/>
      <rect id="Rectangle_73" data-name="Rectangle 73" width="8.04" height="55.04" rx="3.31" transform="translate(334.02 145.98)" fill="#407bff"/>
      <rect id="Rectangle_74" data-name="Rectangle 74" width="8.04" height="21.58" rx="2.8" transform="translate(179.27 156.77)" fill="#407bff"/>
      <rect id="Rectangle_75" data-name="Rectangle 75" width="25.56" height="1" transform="translate(252.11 86.99)" fill="#407bff"/>
      <rect id="Rectangle_76" data-name="Rectangle 76" width="5.56" height="1" transform="translate(282.67 86.99)" fill="#407bff"/>
      <rect id="Rectangle_77" data-name="Rectangle 77" width="155.9" height="325.33" rx="15.79" transform="translate(181.56 90.49)" fill="#407bff"/>
      <rect id="Rectangle_78" data-name="Rectangle 78" width="152.95" height="288.82" rx="3.07" transform="translate(183.03 109.01)" fill="#fff"/>
      <rect id="Rectangle_79" data-name="Rectangle 79" width="122.81" height="164.75" rx="15" transform="translate(193.89 123.22)" fill="#407bff" opacity="0.05"/>
      <path id="Path_463" data-name="Path 463" d="M273.59,208a10.08,10.08,0,0,0-10.08,10.08v90.59a10.08,10.08,0,0,0,10.08,10.09H336V208Z" fill="#407bff" opacity="0.05"/>
      <path id="Path_464" data-name="Path 464" d="M239.79,100.06H145.25a7.2,7.2,0,0,0-7.21,7.21V155.8a7.21,7.21,0,0,0,7.21,7.21H212l14.47,7.38V163h13.34a7.21,7.21,0,0,0,7.19-7.2V107.27a7.21,7.21,0,0,0-7.21-7.21Z" fill="#263238"/>
      <path id="Path_465" data-name="Path 465" d="M234.39,118.41H161.74a4.13,4.13,0,1,1,0-8.26h72.65a4.13,4.13,0,0,1,0,8.26Zm-72.65-7.29a3.17,3.17,0,0,0,0,6.33h72.65a3.17,3.17,0,0,0,0-6.33Z" fill="#fff"/>
      <path id="Path_466" data-name="Path 466" d="M234.39,132.43h-50a4.06,4.06,0,0,1,0-8.11h50a4.06,4.06,0,0,1,0,8.11Zm-50-7.29a3.24,3.24,0,1,0,0,6.47h50a3.24,3.24,0,1,0,0-6.47Z" fill="#fff"/>
      <path id="Path_467" data-name="Path 467" d="M234.39,146.43H173a4.1,4.1,0,0,1,0-8.19h61.41a4.1,4.1,0,0,1,0,8.19ZM173,139.14a3.2,3.2,0,1,0,0,6.39h61.41a3.2,3.2,0,1,0,0-6.39Z" fill="#fff"/>
      <path id="Path_468" data-name="Path 468" d="M373.66,145.4H265.28a7.21,7.21,0,0,0-7.21,7.21v27.83a7.21,7.21,0,0,0,7.21,7.21h13.34V195l14.46-7.38h80.58a7.21,7.21,0,0,0,7.21-7.21v-27.8A7.21,7.21,0,0,0,373.66,145.4Z" fill="#407bff"/>
      <path id="Path_469" data-name="Path 469" d="M373.66,145.4H265.28a7.21,7.21,0,0,0-7.21,7.21v27.83a7.21,7.21,0,0,0,7.21,7.21h13.34V195l14.46-7.38h80.58a7.21,7.21,0,0,0,7.21-7.21v-27.8A7.21,7.21,0,0,0,373.66,145.4Z" fill="#fff" opacity="0.7"/>
      <path id="Path_470" data-name="Path 470" d="M343.48,163.61H270.83a4.13,4.13,0,1,1,0-8.26h72.65a4.13,4.13,0,0,1,0,8.26Zm-72.65-7.29a3.16,3.16,0,0,0,0,6.32h72.65a3.16,3.16,0,1,0,0-6.32Z" fill="#fff"/>
      <path id="Path_471" data-name="Path 471" d="M320.87,177.62h-50a4.05,4.05,0,0,1,0-8.1h50a4.05,4.05,0,0,1,0,8.1Zm-50-7.29a3.24,3.24,0,0,0,0,6.48h50a3.24,3.24,0,0,0,0-6.48Z" fill="#fff"/>
      <path id="Path_472" data-name="Path 472" d="M165.95,339.1H336v17.76H166a5.88,5.88,0,0,1-5.88-5.88v-6a5.88,5.88,0,0,1,5.83-5.88Z" fill="#407bff"/>
      <path id="Path_473" data-name="Path 473" d="M165.95,339.1H336v17.76H166a5.88,5.88,0,0,1-5.88-5.88v-6a5.88,5.88,0,0,1,5.83-5.88Z" fill="#263238" opacity="0.2"/>
      <path id="Path_474" data-name="Path 474" d="M297.55,339.1H336v17.76H297.55a5.88,5.88,0,0,1-5.88-5.88v-6a5.88,5.88,0,0,1,5.88-5.88Z" fill="#263238" opacity="0.3"/>
      <path id="Path_475" data-name="Path 475" d="M305.84,356.87l22.92,24.81c2.66,2.89,7.22.84,7.22-3.24V356.87Z" fill="#407bff" opacity="0.3"/>
      <path id="Path_476" data-name="Path 476" d="M196.19,356.87l22.92,24.81c2.67,2.89,7.23.84,7.23-3.24V356.87Z" fill="#407bff" opacity="0.3"/>
    </g>
    <g id="freepik--Character--inject-31">
      <path id="Path_477" data-name="Path 477" d="M240.63,268.89c-.15,1.86-.37,3.58-.61,5.35s-.5,3.52-.81,5.27c-.6,3.51-1.32,7-2.2,10.48-.43,1.73-.89,3.47-1.42,5.2-.26.87-.53,1.73-.83,2.59a21.564,21.564,0,0,1-1,2.71,16.612,16.612,0,0,1-.82,1.53,10.069,10.069,0,0,1-1.36,1.86,6.61,6.61,0,0,1-1.52,1.2,4.92,4.92,0,0,1-3.14.58,4.75,4.75,0,0,1-2.42-1.16,6.079,6.079,0,0,1-1-1.2,9.61,9.61,0,0,1-1.18-3.44,19.067,19.067,0,0,1-.19-3l4.74-1c.42.64.81,1.39,1.26,2s.9,1.2,1.11,1.21c0,0,.05-.07-.09-.24a2.2,2.2,0,0,0-1.26-.62,3.09,3.09,0,0,0-1.89.29c-.37.19-.5.31-.56.33s0-.12,0-.35l.19-.87c.12-.62.32-1.47.54-2.26s.39-1.61.58-2.42c.37-1.63.73-3.26,1-4.91.64-3.3,1.2-6.64,1.71-10s1-6.75,1.38-10Z" fill="#b55b52"/>
      <path id="Path_478" data-name="Path 478" d="M232,259c-2.27,3.38-4.55,16.48-4.55,16.48l15.94,7s4.48-21.33.91-25.24C240.62,253.15,234.55,255.21,232,259Z" fill="#407bff"/>
      <path id="Path_479" data-name="Path 479" d="M235.14,267.59c-2.17,2.5-3.18,6.47-3.48,9.68l11.77,5.2a130.252,130.252,0,0,0,2.11-14.53C242.93,265.16,238.85,263.3,235.14,267.59Z" opacity="0.2"/>
      <path id="Path_480" data-name="Path 480" d="M158.48,406.88l-7.93-5.36,11.09-19.27,7.93,5.36Z" fill="#b55b52"/>
      <path id="Path_481" data-name="Path 481" d="M210.91,414.96l-9.18-3.27,3.21-21.98,9.18,3.27Z" fill="#b55b52"/>
      <path id="Path_482" data-name="Path 482" d="M201.22,410.41l10.75.45a.76.76,0,0,1,.74.68l.87,8.18a1.54,1.54,0,0,1-1.6,1.64c-3.75-.22-5.55-.14-10.27-.33-2.91-.13-8.82.6-12.83.43s-4.07-4.14-2.38-4.43c7.56-1.31,10.49-4.08,13.1-6.09a2.49,2.49,0,0,1,1.62-.53Z" fill="#263238"/>
      <path id="Path_483" data-name="Path 483" d="M151.63,398.66l8.86,6.1a.76.76,0,0,1,.25,1l-3.81,7.7a1.53,1.53,0,0,1-2.23.53c-3-2.18-4.1-3-8-5.68-2.39-1.65-8-5.05-11.32-7.33s-1.06-5.82.52-5.17c7.09,2.93,10.79,2.77,14.07,2.45A2.59,2.59,0,0,1,151.63,398.66Z" fill="#263238"/>
      <g id="Group_8" data-name="Group 8" opacity="0.2">
        <path id="Path_484" data-name="Path 484" d="M161.63,382.25l-6.52,11.35,8.42,4.51,6.04-10.49Z"/>
        <path id="Path_485" data-name="Path 485" d="M214.12,392.99l-9.19-3.28L203,403.04l9.38,1.9Z"/>
      </g>
      <path id="Path_486" data-name="Path 486" d="M232.3,263.34c.11,7.2,1.55,21.63,7,50.51l38.87-1c-1.06-15.8-1.33-25.56,5.4-58.22A115.1,115.1,0,0,0,267,252.88a123.814,123.814,0,0,0-17.66.45c-3.54.42-7.31,1.07-10.31,1.65a8.36,8.36,0,0,0-6.73,8.36Z" fill="#407bff"/>
      <path id="Path_487" data-name="Path 487" d="M282.56,259.67a15.38,15.38,0,0,0-7.76,7.53c-1.88,4.29,2.83,13.11,3.95,15.09C279.51,276.19,280.73,268.93,282.56,259.67Z" opacity="0.2"/>
      <path id="Path_488" data-name="Path 488" d="M254.77,212.2c-3.87,4.33-7.37,22.67,4.64,31-.52,7.65,17.81,2.61,20-6.74C281.47,227.82,266.39,199.19,254.77,212.2Z" fill="#263238"/>
      <path id="Path_489" data-name="Path 489" d="M270.23,244.71a.27.27,0,0,1-.27-.26.28.28,0,0,1,.26-.29c7.06-.32,9.38-4.18,10.08-7.36,1.63-7.4-3.63-17.2-9.08-20a.271.271,0,0,1,.25-.48c5.62,2.92,11,13,9.36,20.63-.74,3.36-3.18,7.45-10.59,7.78Z" fill="#263238"/>
      <path id="Path_490" data-name="Path 490" d="M272,246a22.708,22.708,0,0,1-3.24-.25.27.27,0,1,1,.08-.53c7.16,1,11.83-1.35,13.16-6.66,1.91-7.69-3.8-19.3-10.72-21.81a.27.27,0,1,1,.18-.5c7.28,2.63,13.07,14.38,11.06,22.44C281.78,241.59,279.46,246,272,246Z" fill="#263238"/>
      <path id="Path_491" data-name="Path 491" d="M264.81,235.18c-1,5.71-1.86,14,2.21,17.7,0,0-7.91,4.34-16.23,18.1-7.25-11.31-1.43-17.65-1.43-17.65,6.3-1.67,6.07-4.24,4.85-8.62Z" fill="#b55b52"/>
      <path id="Path_492" data-name="Path 492" d="M254.84,260.26a3.25,3.25,0,0,1-2.74,2.43c-1.16,0-1.82-1-1.46-2.36a3.22,3.22,0,0,1,2.74-2.43C254.54,257.88,255.19,258.93,254.84,260.26Z" fill="#fff"/>
      <path id="Path_493" data-name="Path 493" d="M254,259h0a.24.24,0,0,1-.24-.25.25.25,0,0,1,.25-.25h0c.22,0,6.14-.07,12.88-5.81a.252.252,0,0,1,.33.38C260.39,258.86,254.54,259,254,259Z" fill="#fff"/>
      <path id="Path_494" data-name="Path 494" d="M252.74,258.9h0s-3.59-.62-3.59-5.57a.25.25,0,0,1,.5,0c0,4.51,3,5,3.17,5.07a.253.253,0,0,1-.08.5Z" fill="#fff"/>
      <path id="Path_495" data-name="Path 495" d="M260.49,239.07l-6.27,5.63a18.522,18.522,0,0,1,.62,3.12c2.41-.41,6.17-2.57,6.62-5.21C261.67,241.36,260.71,239.65,260.49,239.07Z" opacity="0.2"/>
      <path id="Path_496" data-name="Path 496" d="M239.21,209.4c-3.9,4.36-8.81,19.48,3.28,27.82-.52,7.7,17.28,1.6,20.47-7.54S250.91,196.3,239.21,209.4Z" fill="#263238"/>
      <path id="Path_497" data-name="Path 497" d="M265.83,220.41c1.56,9.37,2.43,13.3-1.15,19.12-5.38,8.76-17.23,8.62-21.56-.09-3.9-7.85-5.8-21.86,2.4-27.62a13,13,0,0,1,20.31,8.59Z" fill="#b55b52"/>
      <path id="Path_498" data-name="Path 498" d="M243.44,210.68c.57,5,10.42,17.86,22.72,14.87,4.65,4.75,10.93-10.19,6.89-17.48S241.73,195.64,243.44,210.68Z" fill="#263238"/>
      <path id="Path_499" data-name="Path 499" d="M239.31,313.85c-18.9-1.26-57.76,3.53-63.76,22-9,27.82-19.5,51.57-19.5,51.57l12.14,5.81s23.35-28.34,30.53-46.81c14,1.56,32.56-2.8,38.15-3.49,20.52-2.51,28.93-15.79,30.9-29.82Z" fill="#263238"/>
      <path id="Path_500" data-name="Path 500" d="M223.64,323.2c-15.18-.23-33.59,9.39-31.52,36.32a94,94,0,0,0,6.6-13.09,78,78,0,0,0,14.26,0C217.77,335.82,227.29,323.26,223.64,323.2Z" opacity="0.2"/>
      <path id="Path_501" data-name="Path 501" d="M167.28,396.26l-13.46-7.04,1.25-4.81,15.35,7.36Z" fill="#407bff"/>
      <path id="Path_502" data-name="Path 502" d="M167.28,396.26l-13.46-7.04,1.25-4.81,15.35,7.36Z" opacity="0.4"/>
      <path id="Path_503" data-name="Path 503" d="M249.57,313.59s-47.42,10.75-47.27,24.91c.33,30.28-.27,59.55-.27,59.55L215,400.62s10.81-34.28,10.9-52.63c20.26-7.58,60,9.6,52.31-35.14Z" fill="#263238"/>
      <path id="Path_504" data-name="Path 504" d="M216.29,402.73l-15.93-2.94-.77-5.32,18.89,2.62Z" fill="#407bff"/>
      <path id="Path_505" data-name="Path 505" d="M216.29,402.73l-15.93-2.94-.77-5.32,18.89,2.62Z" opacity="0.4"/>
      <path id="Path_506" data-name="Path 506" d="M251.66,226.26c.17.75-.09,1.45-.58,1.56s-1-.4-1.2-1.15.08-1.46.57-1.57S251.49,225.5,251.66,226.26Z" fill="#263238"/>
      <path id="Path_507" data-name="Path 507" d="M243.15,228.22c.18.75-.08,1.45-.57,1.56s-1-.4-1.21-1.15.09-1.46.58-1.57S243,227.46,243.15,228.22Z" fill="#263238"/>
      <path id="Path_508" data-name="Path 508" d="M242.17,227.05l-1.92-.1S241.5,228.14,242.17,227.05Z" fill="#263238"/>
      <path id="Path_509" data-name="Path 509" d="M246.09,229a20.54,20.54,0,0,1-1.58,5.42,3.31,3.31,0,0,0,2.8-.12Z" fill="#a02724"/>
      <path id="Path_510" data-name="Path 510" d="M252.09,236.28a7.382,7.382,0,0,1-1.09.33.226.226,0,1,1-.1-.44,6.1,6.1,0,0,0,4.32-3.45.23.23,0,0,1,.43.16,6.37,6.37,0,0,1-3.56,3.4Z" fill="#263238"/>
      <path id="Path_511" data-name="Path 511" d="M269.5,227.65a7,7,0,0,1-2.75,4.54c-2,1.43-3.8-.13-3.95-2.43-.15-2.07.71-5.31,3-5.83a3.12,3.12,0,0,1,3.7,3.72Z" fill="#b55b52"/>
      <path id="Path_512" data-name="Path 512" d="M252.94,223a.49.49,0,0,1-.5-.19c-1.14-1.76-3.84-1.88-3.87-1.88a.455.455,0,0,1,.03-.91c.13,0,3.2.14,4.6,2.29a.45.45,0,0,1-.13.63Z" fill="#263238"/>
      <path id="Path_513" data-name="Path 513" d="M238.66,224.84a.45.45,0,0,1-.53-.7,4.48,4.48,0,0,1,3.7-1.84.451.451,0,1,1-.06.9,3.6,3.6,0,0,0-2.92,1.49.45.45,0,0,1-.19.15Z" fill="#263238"/>
      <path id="Path_514" data-name="Path 514" d="M196.16,411.45a.3.3,0,0,1-.08-.08,1.28,1.28,0,0,1-.33-1.21.77.77,0,0,1,.48-.62c1.13-.46,4,1.54,4.28,1.76a.228.228,0,0,1-.09.41C199.21,412,197.08,412.21,196.16,411.45Zm3.63-.09c-1.15-.76-2.79-1.64-3.39-1.4a.31.31,0,0,0-.2.28.82.82,0,0,0,.2.81c.46.48,1.71.57,3.39.31Z" fill="#263238"/>
      <path id="Path_515" data-name="Path 515" d="M200,411.47c-.91-.76-2.23-2.59-2-3.55a.79.79,0,0,1,.79-.6,1.21,1.21,0,0,1,1,.34c1,1,.9,3.72.89,3.84a.23.23,0,0,1-.34.19,2.32,2.32,0,0,1-.34-.22Zm-.63-3.53a.75.75,0,0,0-.54-.17c-.29,0-.36.15-.39.26-.15.65.87,2.24,1.75,3,0-.92-.17-2.48-.77-3.05Z" fill="#263238"/>
      <path id="Path_516" data-name="Path 516" d="M147.72,398a3.58,3.58,0,0,1-1.58-1.81,1.25,1.25,0,0,1,.29-1.14.74.74,0,0,1,.66-.28c1.33.14,3.36,3.91,3.59,4.34a.206.206,0,0,1-.26.31,16.681,16.681,0,0,1-2.7-1.42Zm-.29-2.6a.84.84,0,0,0-.39-.18.27.27,0,0,0-.26.12.82.82,0,0,0-.2.75c.18.76,1.43,1.72,3.37,2.64a12,12,0,0,0-2.52-3.32Z" fill="#263238"/>
      <path id="Path_517" data-name="Path 517" d="M150.35,399.41l-.06-.07c-.65-1.07-1.34-4-.58-4.85.18-.18.51-.34,1.07,0a1.65,1.65,0,0,1,.81,1c.42,1.5-.86,3.75-.91,3.85a.23.23,0,0,1-.2.11A.22.22,0,0,1,150.35,399.41Zm.33-4.49-.12-.07c-.37-.2-.48-.08-.52,0-.46.47-.12,2.68.44,3.92a5.17,5.17,0,0,0,.67-3.12,1.18,1.18,0,0,0-.47-.73Z" fill="#263238"/>
      <path id="Path_518" data-name="Path 518" d="M250.68,225.09l-1.93-.1S250,226.18,250.68,225.09Z" fill="#263238"/>
      <path id="Path_519" data-name="Path 519" d="M278.7,310.55l1.09,3.46c.14.26-.17.55-.62.56l-40,1c-.35,0-.64-.16-.67-.38l-.44-3.47c0-.24.27-.45.65-.46l39.36-1a.7.7,0,0,1,.63.29Z" fill="#fff"/>
      <path id="Path_520" data-name="Path 520" d="M273.4,315.1h1.06c.21,0,.36-.12.34-.25l-.61-4.51c0-.13-.2-.24-.41-.23h-1c-.21,0-.37.12-.35.25l.61,4.5C273,315,273.19,315.1,273.4,315.1Z" fill="#263238"/>
      <path id="Path_521" data-name="Path 521" d="M242.13,315.9h1.06c.21,0,.37-.12.35-.25l-.61-4.51c0-.13-.21-.23-.42-.23h-1c-.21,0-.37.12-.35.25l.61,4.51C241.74,315.8,241.92,315.9,242.13,315.9Z" fill="#263238"/>
      <path id="Path_522" data-name="Path 522" d="M257.7,315.5h1.06c.21,0,.36-.12.35-.25l-.61-4.51c0-.13-.21-.23-.42-.23h-1.05c-.21,0-.37.12-.35.25l.61,4.51C257.31,315.4,257.49,315.5,257.7,315.5Z" fill="#263238"/>
      <path id="Path_523" data-name="Path 523" d="M253.56,292.33l-9.68-3.66,3.25,9.18s6.06,1,8.49-2.15Z" fill="#b55b52"/>
      <path id="Path_524" data-name="Path 524" d="M287.57,267.8c.41,1.39.68,2.57.94,3.86s.49,2.54.67,3.82a52.27,52.27,0,0,1,.56,7.87,33.081,33.081,0,0,1-1,8.33,20.406,20.406,0,0,1-.72,2.17,11.45,11.45,0,0,1-1.37,2.66A10.9,10.9,0,0,1,282,300.1a17.729,17.729,0,0,1-4.54,1.18,27.188,27.188,0,0,1-4.17.25,51.289,51.289,0,0,1-7.76-.74A81.72,81.72,0,0,1,251,296.9l1.3-4.67a128,128,0,0,0,14,1.52,51.759,51.759,0,0,0,6.73-.09,15.48,15.48,0,0,0,5.45-1.29,2.25,2.25,0,0,0,1-.85,16.637,16.637,0,0,0,.47-1.92,27.311,27.311,0,0,0,.27-6.08,60.226,60.226,0,0,0-.72-6.57c-.18-1.11-.37-2.22-.59-3.32s-.49-2.26-.71-3.21Z" fill="#b55b52"/>
      <path id="Path_525" data-name="Path 525" d="M283.58,254.63c3.92,1.08,6.94,17,6.94,17L275.67,279s-3.77-9.85-2.27-14.93C275,258.78,279.1,253.39,283.58,254.63Z" fill="#407bff"/>
      <path id="Path_526" data-name="Path 526" d="M241.26,302.59h-8.73a1.53,1.53,0,0,1-1.4-1.13L226.59,283a.85.85,0,0,1,.84-1.13h8.74a1.53,1.53,0,0,1,1.4,1.13l4.54,18.45a.86.86,0,0,1-.85,1.14Z" fill="#263238"/>
      <path id="Path_527" data-name="Path 527" d="M222.94,291.92l5.32-2.25L227.09,300a9.657,9.657,0,0,1-1.55.43,4.47,4.47,0,0,1-5-5.95h0A4.48,4.48,0,0,1,222.94,291.92Z" fill="#b55b52"/>
      <path id="Path_528" data-name="Path 528" d="M232.97,291.02l-.98,7.87-4.9,1.1,1.17-10.32Z" fill="#b55b52"/>
      <path id="Path_529" data-name="Path 529" d="M236.2,291.07l3.13,7.54,7.8-.76-3.25-9.18Z" fill="#b55b52"/>
    </g>
  </g>
</svg>
