<svg xmlns="http://www.w3.org/2000/svg" width="423.341" height="341.29" viewBox="0 0 423.341 341.29">
  <g id="Blog_post-rafiki" data-name="Blog post-rafiki" transform="translate(-38.329 -86.27)">
    <g id="freepik--background-simple--inject-61">
      <path id="Path_530" data-name="Path 530" d="M461.55,229.74C469.69,67,59.6,30.38,39.45,208.55,24.82,337.87,157,301.8,225.15,267.75c49.89-24.92,80.22-31.2,132.19-9.69C393,272.82,458.07,299.4,461.55,229.74Z" fill="#407bff"/>
      <path id="Path_531" data-name="Path 531" d="M461.55,229.74C469.69,67,59.6,30.38,39.45,208.55,24.82,337.87,157,301.8,225.15,267.75c49.89-24.92,80.22-31.2,132.19-9.69C393,272.82,458.07,299.4,461.55,229.74Z" fill="#fff" opacity="0.9"/>
    </g>
    <g id="freepik--Shadow--inject-61">
      <ellipse id="Ellipse_23" data-name="Ellipse 23" cx="193.89" cy="11.32" rx="193.89" ry="11.32" transform="translate(56.11 404.92)" fill="#f5f5f5"/>
    </g>
    <g id="freepik--Plant--inject-61">
      <path id="Path_532" data-name="Path 532" d="M242.35,386.62c-.94-32.63-2.14-189.64-.26-206l3.75-4.09s-.09,4.69-.18,17.18c-.39,55.9-1.84,184.57-1.52,192.88Z" fill="#407bff"/>
      <path id="Path_533" data-name="Path 533" d="M242.35,386.62c-.94-32.63-2.14-189.64-.26-206l3.75-4.09s-.09,4.69-.18,17.18c-.39,55.9-1.84,184.57-1.52,192.88Z" fill="#fff" opacity="0.6"/>
      <path id="Path_534" data-name="Path 534" d="M257.66,293.8A123.671,123.671,0,0,1,289.12,271c8.63-4.22-14,23.34-22.86,33.61S246.5,326.23,243,335.82C242.3,316.28,246.74,304.67,257.66,293.8Z" fill="#407bff"/>
      <path id="Path_535" data-name="Path 535" d="M257.66,293.8A123.671,123.671,0,0,1,289.12,271c8.63-4.22-14,23.34-22.86,33.61S246.5,326.23,243,335.82C242.3,316.28,246.74,304.67,257.66,293.8Z" fill="#fff" opacity="0.6"/>
      <path id="Path_536" data-name="Path 536" d="M242.91,210.39c-6.74-29.74-4.66-46.84,2.93-65.17,7.1-17.14,12.64-24.8,20.89-31.29,2.13-1.67-2.66,22.29-10,40.15-5.18,12.6-7.75,29-11.33,38.44C242.91,199,242.91,210.39,242.91,210.39Z" fill="#407bff"/>
      <path id="Path_537" data-name="Path 537" d="M242.91,210.39c-6.74-29.74-4.66-46.84,2.93-65.17,7.1-17.14,12.64-24.8,20.89-31.29,2.13-1.67-2.66,22.29-10,40.15-5.18,12.6-7.75,29-11.33,38.44C242.91,199,242.91,210.39,242.91,210.39Z" fill="#fff" opacity="0.6"/>
      <path id="Path_538" data-name="Path 538" d="M243.27,275.56c-.74-17.8-1.63-35,11.9-57.61,3.29-5.51,32.4-52,42.45-54.8,4.93-1.36-3.83,34.61-17.29,56.08-10.1,16.09-14.76,20.35-25.81,39.13C250.17,265.76,243.27,275.56,243.27,275.56Z" fill="#407bff"/>
      <path id="Path_539" data-name="Path 539" d="M243.27,275.56c-.74-17.8-1.63-35,11.9-57.61,3.29-5.51,32.4-52,42.45-54.8,4.93-1.36-3.83,34.61-17.29,56.08-10.1,16.09-14.76,20.35-25.81,39.13C250.17,265.76,243.27,275.56,243.27,275.56Z" fill="#fff" opacity="0.6"/>
      <path id="Path_540" data-name="Path 540" d="M225.89,202.05c-11.88-11.46-23.53-19-32.16-22.81s14.09,24.7,25,37.08,20.91,23.12,25.19,34.14C242.69,226.85,237.78,213.52,225.89,202.05Z" fill="#407bff"/>
      <path id="Path_541" data-name="Path 541" d="M225.89,202.05c-11.88-11.46-23.53-19-32.16-22.81s14.09,24.7,25,37.08,20.91,23.12,25.19,34.14C242.69,226.85,237.78,213.52,225.89,202.05Z" fill="#fff" opacity="0.6"/>
      <path id="Path_542" data-name="Path 542" d="M243.93,309.32C242,295.91,237.6,280.6,230.85,270s-17.14-26.76-25.74-31.13c-2.06-1.05,9.31,31.7,14.82,40.76a98.761,98.761,0,0,0,16.31,20.39C237.7,301.53,243.93,309.32,243.93,309.32Z" fill="#407bff"/>
      <path id="Path_543" data-name="Path 543" d="M243.93,309.32C242,295.91,237.6,280.6,230.85,270s-17.14-26.76-25.74-31.13c-2.06-1.05,9.31,31.7,14.82,40.76a98.761,98.761,0,0,0,16.31,20.39C237.7,301.53,243.93,309.32,243.93,309.32Z" fill="#fff" opacity="0.6"/>
      <path id="Path_544" data-name="Path 544" d="M258.38,395.08H228.14l-2.28-32.58h34.8Z" fill="#407bff"/>
      <path id="Path_545" data-name="Path 545" d="M262.91,367.99h-39.3l-1.13-8.49h41.56Z" fill="#407bff"/>
      <g id="Group_9" data-name="Group 9" opacity="0.4">
        <path id="Path_546" data-name="Path 546" d="M258.38,395.08H228.14l-2.28-32.58h34.8Z"/>
        <path id="Path_547" data-name="Path 547" d="M262.91,367.99h-39.3l-1.13-8.49h41.56Z"/>
      </g>
    </g>
    <g id="freepik--Character--inject-61">
      <path id="Path_548" data-name="Path 548" d="M291.08,273.32c-9.3,1.67-39.64-17.21-49.91-29.64a154.086,154.086,0,0,0,20.16-21.09c-6.66,7.63-17.36,14.4-23.71,18-2.87-2.48-4.55-4-4.55-4s26-8.71,39.82-39.34c10.53-23.31,25.83-35.82,42-23.84C346.33,181.11,313,263.73,291.08,273.32Z" fill="#263238"/>
      <path id="Path_549" data-name="Path 549" d="M300.45,223c-.25.37-.4.59-.6.85l-.55.74c-.38.48-.76.93-1.15,1.38-.79.9-1.59,1.76-2.43,2.58a50.4,50.4,0,0,1-5.4,4.51,48.9,48.9,0,0,1-6,3.64c-1.06.51-2.11,1-3.2,1.45l-1.63.64-.43.17c-.26.08-.48.16-.77.23a5.76,5.76,0,0,1-2,.15,5.27,5.27,0,0,1-2.32-.82,5.58,5.58,0,0,1-1.49-1.51,7.73,7.73,0,0,1-1.07-2.6,17,17,0,0,1-.35-4,44.416,44.416,0,0,1,.76-6.89c.41-2.21.89-4.37,1.43-6.51s1.16-4.24,1.89-6.36l3.75.91c-.27,2.1-.57,4.23-.77,6.35s-.45,4.22-.57,6.31a49.109,49.109,0,0,0-.05,6.05,10.681,10.681,0,0,0,.4,2.45c.09.29.22.48.18.37a1,1,0,0,0-.35-.36,1.73,1.73,0,0,0-.8-.31,1.3,1.3,0,0,0-.4,0h0l.32-.15,1.34-.65c.9-.43,1.76-.93,2.63-1.4a55.386,55.386,0,0,0,4.95-3.31,46.388,46.388,0,0,0,4.45-3.94,28.518,28.518,0,0,0,2-2.13c.31-.37.63-.74.92-1.11l.44-.55.36-.46Z" fill="#e4897b"/>
      <path id="Path_550" data-name="Path 550" d="M278.55,212.48l3.23-5.79-7.94.48s-.5,3.76,1.68,6.06Z" fill="#e4897b"/>
      <path id="Path_551" data-name="Path 551" d="M302.5,213.39c-7.84.31-13.8,7.76-13.8,7.76l10,12.6s7.5-7.56,8.18-11.71C307.61,217.71,307.22,213.2,302.5,213.39Z" fill="#407bff"/>
      <path id="Path_552" data-name="Path 552" d="M302.5,213.39c-7.84.31-13.8,7.76-13.8,7.76l10,12.6s7.5-7.56,8.18-11.71C307.61,217.71,307.22,213.2,302.5,213.39Z" opacity="0.3"/>
      <path id="Path_553" data-name="Path 553" d="M280.3,203.21l-5.82,1.45-.64,2.51,7.94-.48Z" fill="#e4897b"/>
      <path id="Path_554" data-name="Path 554" d="M279.75,196.25l1.03.54-.47,7.29-2.3.16Z" fill="#e4897b"/>
      <path id="Path_555" data-name="Path 555" d="M278,195.97l-1.01.24-.96,8.74,2.27-.58Z" fill="#e4897b"/>
      <path id="Path_556" data-name="Path 556" d="M295.23,215.76s-3.07,2.31,17.32,42.7L342,249.13c-4.29-11.83-6.65-19.23-8.7-45.66a91.311,91.311,0,0,0-13,2.31A97.929,97.929,0,0,0,306.91,210C301.33,212.36,295.23,215.76,295.23,215.76Z" fill="#407bff"/>
      <path id="Path_557" data-name="Path 557" d="M295.23,215.76s-3.07,2.31,17.32,42.7L342,249.13c-4.29-11.83-6.65-19.23-8.7-45.66a91.311,91.311,0,0,0-13,2.31A97.929,97.929,0,0,0,306.91,210C301.33,212.36,295.23,215.76,295.23,215.76Z" opacity="0.3"/>
      <path id="Path_558" data-name="Path 558" d="M364.09,407.93l-7.35.71-7.65-17.5,7.35-.71Z" fill="#e4897b"/>
      <path id="Path_559" data-name="Path 559" d="M349.09,391.15l3.94,9.02h7.67l-4.25-9.74Z" fill="#ce6f64"/>
      <path id="Path_560" data-name="Path 560" d="M430.41,371.81l-4.19,6.36-16.06-7.67,4.2-6.35Z" fill="#e4897b"/>
      <path id="Path_561" data-name="Path 561" d="M414.36,364.15l-4.19,6.35,8.28,3.95,4.19-6.35Z" fill="#ce6f64"/>
      <path id="Path_562" data-name="Path 562" d="M312.55,258.46s-1.48,60.73,6,82.71c7.77,22.86,30.66,56.38,30.66,56.38l14.27-.69s-20.58-42.12-22.9-60.31c-3.18-25.08-6.44-84.92-6.44-84.92Z" fill="#407bff"/>
      <path id="Path_563" data-name="Path 563" d="M312.55,258.46s-1.48,60.73,6,82.71c7.77,22.86,30.66,56.38,30.66,56.38l14.27-.69s-20.58-42.12-22.9-60.31c-3.18-25.08-6.44-84.92-6.44-84.92Z" opacity="0.6"/>
      <path id="Path_564" data-name="Path 564" d="M336.58,290.74l-10.5-24s1.21,27.67,11.28,34.79C337.09,297.93,336.83,294.3,336.58,290.74Z" opacity="0.3"/>
      <path id="Path_565" data-name="Path 565" d="M320.34,256s20,48.47,33.22,75.16c10.7,21.55,61.8,43.69,61.8,43.69l5.36-9s-39.09-24.8-46.48-39.42c-23.65-46.79-18.61-67.13-32.21-77.3Z" fill="#407bff"/>
      <path id="Path_566" data-name="Path 566" d="M320.34,256s20,48.47,33.22,75.16c10.7,21.55,61.8,43.69,61.8,43.69l5.36-9s-39.09-24.8-46.48-39.42c-23.65-46.79-18.61-67.13-32.21-77.3Z" opacity="0.6"/>
      <path id="Path_567" data-name="Path 567" d="M424.45,377.48,425,369a.62.62,0,0,1,.56-.58l6.82-.53a1.22,1.22,0,0,1,1.27,1.3c-.25,3-.51,4.4-.76,8.15-.14,2.31-.13,7.44-.34,10.62s-3.37,3.16-3.57,1.81c-.9-6-2.59-8.83-4.14-10.94A2,2,0,0,1,424.45,377.48Z" fill="#263238"/>
      <path id="Path_568" data-name="Path 568" d="M355.76,406.37h9a.76.76,0,0,1,.72.55l2,7.14a1.11,1.11,0,0,1-1.1,1.43c-3.16-.05-4.7-.23-8.67-.23-2.44,0-8.76.25-12.13.25s-4-3.34-2.62-3.64c6.12-1.35,9.65-3.22,11.53-5a1.87,1.87,0,0,1,1.27-.5Z" fill="#263238"/>
      <path id="Path_569" data-name="Path 569" d="M314.2,191.13c.52,4.58,2.17,12.73,6.09,14.65,0,0,.21,4.74-7.79,7.28-8.8,2.78-5.59-3-5.59-3,4.44-2.67,3.19-6.19,1.29-9.27Z" fill="#e4897b"/>
      <path id="Path_570" data-name="Path 570" d="M299.31,213.6c2.18-1.12,4.95-2.47,7.6-3.58a98.375,98.375,0,0,1,13.38-4.24c2.58-.68,5.18-1.19,7.37-1.54.47,1.45,2,11.92-13.64,15.79C300.32,223.43,298.59,215.86,299.31,213.6Z" fill="#e4897b"/>
      <path id="Path_571" data-name="Path 571" d="M306.34,210.31a.54.54,0,0,1-.36-.14.52.52,0,0,1-.14-.36.5.5,0,0,1,.14-.35.52.52,0,0,1,.71,0,.51.51,0,0,1,.15.35.53.53,0,0,1-.15.36A.5.5,0,0,1,306.34,210.31Z" fill="#f0f0f0"/>
      <path id="Path_572" data-name="Path 572" d="M309.8,216.28a.51.51,0,0,1-.45-.56h0a.5.5,0,0,1,.55-.44h0a.5.5,0,0,1,.45.55h0a.51.51,0,0,1-.5.45Zm1.55-.48a.51.51,0,0,1,.44-.56h0a.5.5,0,0,1,.55.44h0a.49.49,0,0,1-.44.56h0a.51.51,0,0,1-.55-.44Zm2-.3a.5.5,0,0,1,.35-.61h0a.49.49,0,0,1,.61.36h0a.5.5,0,0,1-.35.61h-.13a.5.5,0,0,1-.5-.36Zm-5.63.12a.49.49,0,0,1-.18-.68h0a.51.51,0,0,1,.69-.18h0a.5.5,0,0,1,.17.69h0a.49.49,0,0,1-.43.24h0a.47.47,0,0,1-.27-.07Zm7.54-.7a.5.5,0,0,1,.26-.66h0a.5.5,0,0,1,.66.26h0a.51.51,0,0,1-.26.66h0a.45.45,0,0,1-.2,0h0a.5.5,0,0,1-.48-.26ZM317,214a.5.5,0,0,1,.13-.7h0a.5.5,0,0,1,.69.13h0a.49.49,0,0,1-.12.69h0a.52.52,0,0,1-.29.09h0A.49.49,0,0,1,317,214Zm-10.82,0h0a.5.5,0,0,1,.24-.67h0a.49.49,0,0,1,.66.23h0a.5.5,0,0,1-.23.67h0a.54.54,0,0,1-.21.05h0a.5.5,0,0,1-.46-.28Zm12.43-1.16a.49.49,0,0,1,0-.7h0a.48.48,0,0,1,.7,0h0a.5.5,0,0,1,0,.71h0a.5.5,0,0,1-.37.16h0a.51.51,0,0,1-.33-.21Zm-12.94-1a.5.5,0,0,1,.47-.53h0a.51.51,0,0,1,.53.48h0a.5.5,0,0,1-.48.52h0a.5.5,0,0,1-.52-.48Zm14.23-.56a.5.5,0,0,1-.17-.69h0a.51.51,0,0,1,.69-.16h0a.51.51,0,0,1,.17.69h0a.52.52,0,0,1-.43.24h0a.5.5,0,0,1-.26-.09Zm1-1.76a.49.49,0,0,1-.29-.64h0a.49.49,0,0,1,.64-.29h0a.5.5,0,0,1,.29.65h0a.49.49,0,0,1-.47.32h0a.38.38,0,0,1-.21-.05Zm.63-1.89a.52.52,0,0,1-.39-.6h0a.5.5,0,0,1,.6-.38h0a.49.49,0,0,1,.38.59h0a.51.51,0,0,1-.49.4h-.1Z" fill="#f0f0f0"/>
      <path id="Path_573" data-name="Path 573" d="M321.89,205.61a.48.48,0,0,1-.5-.5.5.5,0,0,1,.14-.35.57.57,0,0,1,.16-.11.53.53,0,0,1,.55.11.51.51,0,0,1,.15.35.55.55,0,0,1-.15.36.54.54,0,0,1-.16.1.46.46,0,0,1-.19.04Z" fill="#f0f0f0"/>
      <path id="Path_574" data-name="Path 574" d="M311.75,195.06l-3.55,5.68a13.79,13.79,0,0,1,1.17,2.25c1.75-.85,4-3.36,3.58-5.35A8,8,0,0,0,311.75,195.06Z" fill="#ce6f64"/>
      <path id="Path_575" data-name="Path 575" d="M312.12,181c2.51,7.12,3.73,10.08,1.73,15.13-3,7.59-12.3,9.13-16.89,2.9-4.13-5.6-7.55-16.31-1.93-21.95A10.3,10.3,0,0,1,312.12,181Z" fill="#e4897b"/>
      <path id="Path_576" data-name="Path 576" d="M301.74,173.42c-1.57,2.42,4.82,16.42,14.19,13.63,4.69-1.4,3.11-4.53.35-7.31a21.31,21.31,0,0,0-12.3-6Z" fill="#263238"/>
      <path id="Path_577" data-name="Path 577" d="M302.1,173.82c-2.76-.27-11.93,1.42-11.53,10.74,0,0,3.81-3.42,14.43-4Z" fill="#263238"/>
      <path id="Path_578" data-name="Path 578" d="M315.85,186.75a5.5,5.5,0,0,1-.42,4.2c-.92,1.7-2.77,1.2-3.67-.39-.81-1.44-1.3-4.06.18-5.23a2.49,2.49,0,0,1,3.91,1.42Z" fill="#e4897b"/>
      <path id="Path_579" data-name="Path 579" d="M341.92,247.26l2.16,2.22c.17.17,0,.46-.34.57l-30.91,9.78a.524.524,0,0,1-.6-.14l-1.1-2.56c-.08-.17.11-.4.4-.49l29.84-9.44a.56.56,0,0,1,.55.06Z" fill="#407bff"/>
      <path id="Path_580" data-name="Path 580" d="M302.41,187.35c.24.57.13,1.15-.23,1.31s-.87-.18-1.11-.74-.13-1.15.24-1.31S302.17,186.78,302.41,187.35Z" fill="#263238"/>
      <path id="Path_581" data-name="Path 581" d="M296,190.06c.24.56.14,1.15-.23,1.31s-.87-.18-1.11-.74-.13-1.15.24-1.31S295.78,189.49,296,190.06Z" fill="#263238"/>
      <path id="Path_582" data-name="Path 582" d="M295.1,189.28l-1.53.19S294.72,190.23,295.1,189.28Z" fill="#263238"/>
      <path id="Path_583" data-name="Path 583" d="M298.12,190.31a16.728,16.728,0,0,1-.48,4.47,2.62,2.62,0,0,0,2.17-.48Z" fill="#de5753"/>
      <path id="Path_584" data-name="Path 584" d="M302.67,195.7a.17.17,0,0,1-.16-.11.18.18,0,0,1,.09-.24,4.85,4.85,0,0,0,2.91-3.3.17.17,0,0,1,.21-.14.18.18,0,0,1,.15.21,5.19,5.19,0,0,1-3.13,3.56Z" fill="#263238"/>
      <path id="Path_585" data-name="Path 585" d="M303.32,184.5a.31.31,0,0,1-.18-.05,2.84,2.84,0,0,0-2.59-.2.364.364,0,0,1-.33-.65,3.57,3.57,0,0,1,3.28.23.36.36,0,0,1,.13.49.33.33,0,0,1-.31.18Z" fill="#263238"/>
      <path id="Path_586" data-name="Path 586" d="M291.73,188.37h-.06a.36.36,0,0,1-.29-.42,3.57,3.57,0,0,1,2-2.64.36.36,0,1,1,.28.66,2.86,2.86,0,0,0-1.53,2.11.37.37,0,0,1-.4.29Z" fill="#263238"/>
      <path id="Path_587" data-name="Path 587" d="M339,210.28c.72.85,1.6,1.81,2.42,2.72s1.71,1.81,2.59,2.69c1.75,1.78,3.55,3.51,5.44,5.12s3.8,3.18,5.8,4.58c.49.37,1,.68,1.52,1s1,.67,1.53,1,1.07.65,1.54.9l.64.33.7.28a17.9,17.9,0,0,0,3.11.82,29.441,29.441,0,0,0,3.45.33,48.82,48.82,0,0,0,7.29-.38,71.26,71.26,0,0,0,7.43-1.28c2.47-.51,5-1.18,7.36-1.87l1.43,3.58a75.755,75.755,0,0,1-7.46,3,77.248,77.248,0,0,1-7.79,2.19,47.848,47.848,0,0,1-8.23,1.13,26.5,26.5,0,0,1-8.83-1l-1.13-.4-1.12-.5c-.7-.33-1.26-.65-1.89-1s-1.23-.66-1.82-1-1.21-.69-1.78-1.07a66.807,66.807,0,0,1-6.67-4.8c-2.11-1.72-4.13-3.54-6.06-5.44q-1.44-1.44-2.82-2.94c-.93-1-1.79-2-2.72-3.15Z" fill="#e4897b"/>
      <path id="Path_588" data-name="Path 588" d="M424.44,381.86a1.55,1.55,0,0,1-.29,0,.59.59,0,0,1-.48-.39c-.35-.91,1.29-3.12,1.48-3.37a.184.184,0,0,1,.32.08c.17,1,.35,2.78-.35,3.45a.93.93,0,0,1-.68.23Zm.74-3.22c-.63.9-1.36,2.19-1.18,2.67,0,.06.07.13.22.16a.68.68,0,0,0,.65-.14c.38-.33.49-1.33.31-2.69Z" fill="#407bff"/>
      <path id="Path_589" data-name="Path 589" d="M422.63,380a.781.781,0,0,1-.22,0,.64.64,0,0,1-.46-.64.93.93,0,0,1,.29-.75c.78-.77,3-.64,3.06-.64a.21.21,0,0,1,.15.1.17.17,0,0,1,0,.18,4.79,4.79,0,0,1-2.82,1.75Zm2.24-1.7a4,4,0,0,0-2.38.55.6.6,0,0,0-.18.47c0,.23.11.29.19.31.52.14,1.81-.64,2.43-1.33Z" fill="#407bff"/>
      <path id="Path_590" data-name="Path 590" d="M351.76,407.86a3,3,0,0,1-1.76-.42,1.09,1.09,0,0,1-.46-.87.51.51,0,0,1,.22-.49c.83-.55,3.9.84,4.51,1.13a.17.17,0,0,1,.1.18.19.19,0,0,1-.14.16,11.8,11.8,0,0,1-2.47.31Zm-1.44-1.56a.65.65,0,0,0-.35.08.16.16,0,0,0-.07.17.73.73,0,0,0,.31.6c.71.54,2.41.34,3.39.16A11,11,0,0,0,350.32,406.3Z" fill="#407bff"/>
      <path id="Path_591" data-name="Path 591" d="M354.19,407.55h-.07c-1-.42-3.07-2.06-3-2.92,0-.18.15-.42.62-.47,1.79-.23,2.55,3,2.59,3.18a.18.18,0,0,1-.18.22Zm-2.25-3.05h-.12c-.19,0-.29.07-.3.16-.07.5,1.35,1.8,2.39,2.37C353.67,406.25,353,404.5,351.94,404.5Z" fill="#407bff"/>
      <path id="Path_592" data-name="Path 592" d="M391.67,225.11l-2.16-5.34-3.62,6.84s2.22,3.77,5.37,3.49l.49-1.39a5.13,5.13,0,0,0-.08-3.6Z" fill="#e4897b"/>
      <path id="Path_593" data-name="Path 593" d="M301.48,186.57l-1.52.19S301.11,187.52,301.48,186.57Z" fill="#263238"/>
      <path id="Path_594" data-name="Path 594" d="M364.49,397.28l-17.03.9L345,393.46l18.48-.61Z" fill="#407bff"/>
      <path id="Path_595" data-name="Path 595" d="M364.49,397.28l-17.03.9L345,393.46l18.48-.61Z" fill="#fff" opacity="0.7"/>
      <path id="Path_596" data-name="Path 596" d="M421.95,364.67l-6.87,11.27-3.62-.75,6.44-13.23Z" fill="#407bff"/>
      <path id="Path_597" data-name="Path 597" d="M421.95,364.67l-6.87,11.27-3.62-.75,6.44-13.23Z" fill="#fff" opacity="0.7"/>
      <path id="Path_598" data-name="Path 598" d="M339,251.87l.8-.25c.16-.05.25-.17.21-.27L338.52,248c0-.1-.21-.13-.37-.08l-.8.25a.218.218,0,0,0-.21.27l1.46,3.31C338.64,251.88,338.81,251.92,339,251.87Z" fill="#407bff"/>
      <path id="Path_599" data-name="Path 599" d="M315.16,259.4l.8-.25a.225.225,0,0,0,.22-.27l-1.46-3.31c-.05-.1-.21-.13-.37-.08l-.8.25a.218.218,0,0,0-.21.27l1.46,3.31C314.84,259.41,315,259.45,315.16,259.4Z" fill="#407bff"/>
      <path id="Path_600" data-name="Path 600" d="M327.07,255.64l.8-.26a.223.223,0,0,0,.21-.27l-1.46-3.3c0-.1-.21-.14-.37-.09l-.8.25c-.16.05-.25.18-.21.27l1.46,3.31C326.74,255.65,326.91,255.69,327.07,255.64Z" fill="#407bff"/>
      <path id="Path_601" data-name="Path 601" d="M339,251.87l.8-.25c.16-.05.25-.17.21-.27L338.52,248c0-.1-.21-.13-.37-.08l-.8.25a.218.218,0,0,0-.21.27l1.46,3.31C338.64,251.88,338.81,251.92,339,251.87Z" opacity="0.6"/>
      <path id="Path_602" data-name="Path 602" d="M315.16,259.4l.8-.25a.225.225,0,0,0,.22-.27l-1.46-3.31c-.05-.1-.21-.13-.37-.08l-.8.25a.218.218,0,0,0-.21.27l1.46,3.31C314.84,259.41,315,259.45,315.16,259.4Z" opacity="0.6"/>
      <path id="Path_603" data-name="Path 603" d="M327.07,255.64l.8-.26a.223.223,0,0,0,.21-.27l-1.46-3.3c0-.1-.21-.14-.37-.09l-.8.25c-.16.05-.25.18-.21.27l1.46,3.31C326.74,255.65,326.91,255.69,327.07,255.64Z" opacity="0.6"/>
      <path id="Path_604" data-name="Path 604" d="M333.33,203.47c3.23,0,10,9,10,9l-8.87,11.82s-5.66-7.38-5.63-11.59C328.87,208.33,329.63,203.51,333.33,203.47Z" fill="#407bff"/>
      <path id="Path_605" data-name="Path 605" d="M333.33,203.47c3.23,0,10,9,10,9l-8.87,11.82s-5.66-7.38-5.63-11.59C328.87,208.33,329.63,203.51,333.33,203.47Z" opacity="0.3"/>
      <path id="Path_606" data-name="Path 606" d="M386.54,219.49l-.08,5.38a1.2,1.2,0,0,0,.22.69l1.95,2.73.88-8.52-1-1.05a1.16,1.16,0,0,0-1.97.77Z" fill="#e4897b"/>
    </g>
    <g id="freepik--blog-post--inject-61">
      <path id="Path_607" data-name="Path 607" d="M214.67,142.92v242h148.9v-242Zm136,232.3H218.82V152.61H350.65Z" fill="#407bff"/>
      <path id="Path_608" data-name="Path 608" d="M214.67,142.92v242h148.9v-242Zm136,232.3H218.82V152.61H350.65Z" fill="#fff" opacity="0.6"/>
      <rect id="Rectangle_80" data-name="Rectangle 80" width="1.39" height="222.61" transform="translate(217.43 152.61)" fill="#fff"/>
      <rect id="Rectangle_81" data-name="Rectangle 81" width="1.39" height="222.61" transform="translate(217.43 152.61)" fill="#f0f0f0"/>
      <path id="Path_609" data-name="Path 609" d="M379.18,86.27H110.43A8.79,8.79,0,0,0,101.66,95V406.75a8.79,8.79,0,0,0,8.77,8.76H379.18a8.78,8.78,0,0,0,8.76-8.76V95a8.78,8.78,0,0,0-8.76-8.73ZM218.82,152.61H350.65V375.22H218.82Z" fill="#407bff"/>
      <path id="Path_610" data-name="Path 610" d="M379.18,86.27H110.43A8.79,8.79,0,0,0,101.66,95V406.75a8.79,8.79,0,0,0,8.77,8.76H379.18a8.78,8.78,0,0,0,8.76-8.76V95a8.78,8.78,0,0,0-8.76-8.73ZM218.82,152.61H350.65V375.22H218.82Z" opacity="0.5"/>
      <path id="Path_611" data-name="Path 611" d="M376.85,86.27H108.1A8.79,8.79,0,0,0,99.33,95V406.75a8.79,8.79,0,0,0,8.77,8.76H376.85a8.79,8.79,0,0,0,8.76-8.76V95A8.79,8.79,0,0,0,376.85,86.27Zm-158,66.34h131.8V375.22H218.82Z" fill="#407bff"/>
      <path id="Path_612" data-name="Path 612" d="M376.85,86.27H108.1A8.79,8.79,0,0,0,99.33,95V406.75a8.79,8.79,0,0,0,8.77,8.76H376.85a8.79,8.79,0,0,0,8.76-8.76V95A8.79,8.79,0,0,0,376.85,86.27Zm-158,66.34h131.8V375.22H218.82Z" opacity="0.2"/>
      <path id="Path_613" data-name="Path 613" d="M99.33,108.93V406.75a8.79,8.79,0,0,0,8.77,8.76H376.85a8.79,8.79,0,0,0,8.76-8.76V108.93Zm119.49,43.68H350.65V375.22H218.82Z" fill="#407bff"/>
      <path id="Path_614" data-name="Path 614" d="M99.33,108.93V406.75a8.79,8.79,0,0,0,8.77,8.76H376.85a8.79,8.79,0,0,0,8.76-8.76V108.93Zm119.49,43.68H350.65V375.22H218.82Z" fill="#fff" opacity="0.6"/>
      <path id="Path_615" data-name="Path 615" d="M101,120.58V403.86H384V120.58ZM350.7,375.22H218.82V152.61H350.65Z" fill="#fff"/>
      <circle id="Ellipse_24" data-name="Ellipse 24" cx="4.66" cy="4.66" r="4.66" transform="translate(361.72 93)" fill="#407bff" opacity="0.76"/>
      <circle id="Ellipse_25" data-name="Ellipse 25" cx="4.66" cy="4.66" r="4.66" transform="translate(345.21 93)" fill="#407bff" opacity="0.76"/>
      <path id="Path_616" data-name="Path 616" d="M328.7,97.66A4.66,4.66,0,1,0,333.36,93,4.66,4.66,0,0,0,328.7,97.66Z" fill="#407bff" opacity="0.76"/>
      <rect id="Rectangle_82" data-name="Rectangle 82" width="286.27" height="1.17" transform="translate(385.61 109.51) rotate(180)" fill="#407bff"/>
      <path id="Path_617" data-name="Path 617" d="M391.44,142.92h-1v-7h1Zm0-13.09h-1V107h1Z" fill="#407bff"/>
      <path id="Path_618" data-name="Path 618" d="M391.44,142.92h-1v-7h1Zm0-13.09h-1V107h1Z" opacity="0.4"/>
      <rect id="Rectangle_83" data-name="Rectangle 83" width="28.19" height="14.01" transform="translate(176.22 214.78) rotate(180)" fill="#407bff"/>
      <rect id="Rectangle_84" data-name="Rectangle 84" width="28.19" height="14.01" transform="translate(176.22 214.78) rotate(180)" fill="#fff" opacity="0.6"/>
      <rect id="Rectangle_85" data-name="Rectangle 85" width="52.16" height="14.01" transform="translate(180.05 307.27) rotate(180)" fill="#407bff"/>
      <rect id="Rectangle_86" data-name="Rectangle 86" width="52.16" height="14.01" transform="translate(180.05 307.27) rotate(180)" fill="#fff" opacity="0.6"/>
      <rect id="Rectangle_87" data-name="Rectangle 87" width="107.87" height="14.01" transform="translate(188.87 145.41) rotate(180)" fill="#407bff"/>
      <rect id="Rectangle_88" data-name="Rectangle 88" width="107.87" height="14.01" transform="translate(188.87 145.41) rotate(180)" fill="#fff" opacity="0.6"/>
      <rect id="Rectangle_89" data-name="Rectangle 89" width="87.16" height="14.01" transform="translate(168.16 168.53) rotate(180)" fill="#407bff"/>
      <rect id="Rectangle_90" data-name="Rectangle 90" width="87.16" height="14.01" transform="translate(168.16 168.53) rotate(180)" fill="#fff" opacity="0.6"/>
      <rect id="Rectangle_91" data-name="Rectangle 91" width="99.05" height="14.01" transform="translate(180.05 191.65) rotate(180)" fill="#407bff"/>
      <rect id="Rectangle_92" data-name="Rectangle 92" width="99.05" height="14.01" transform="translate(180.05 191.65) rotate(180)" fill="#fff" opacity="0.6"/>
      <rect id="Rectangle_93" data-name="Rectangle 93" width="55.32" height="14.01" transform="translate(136.32 214.78) rotate(180)" fill="#407bff"/>
      <rect id="Rectangle_94" data-name="Rectangle 94" width="55.32" height="14.01" transform="translate(136.32 214.78) rotate(180)" fill="#fff" opacity="0.6"/>
      <rect id="Rectangle_95" data-name="Rectangle 95" width="99.05" height="14.01" transform="translate(180.05 237.9) rotate(180)" fill="#407bff"/>
      <rect id="Rectangle_96" data-name="Rectangle 96" width="99.05" height="14.01" transform="translate(180.05 237.9) rotate(180)" fill="#fff" opacity="0.6"/>
      <rect id="Rectangle_97" data-name="Rectangle 97" width="107.87" height="14.01" transform="translate(188.87 261.02) rotate(180)" fill="#407bff"/>
      <rect id="Rectangle_98" data-name="Rectangle 98" width="107.87" height="14.01" transform="translate(188.87 261.02) rotate(180)" fill="#fff" opacity="0.6"/>
      <rect id="Rectangle_99" data-name="Rectangle 99" width="76.04" height="14.01" transform="translate(157.04 284.15) rotate(180)" fill="#407bff"/>
      <rect id="Rectangle_100" data-name="Rectangle 100" width="76.04" height="14.01" transform="translate(157.04 284.15) rotate(180)" fill="#fff" opacity="0.6"/>
      <rect id="Rectangle_101" data-name="Rectangle 101" width="35.19" height="14.01" transform="translate(116.19 307.27) rotate(180)" fill="#407bff"/>
      <rect id="Rectangle_102" data-name="Rectangle 102" width="35.19" height="14.01" transform="translate(116.19 307.27) rotate(180)" fill="#fff" opacity="0.6"/>
      <circle id="Ellipse_26" data-name="Ellipse 26" cx="23.9" cy="23.9" r="23.9" transform="matrix(0.165, -0.986, 0.986, 0.165, 74.042, 370.56)" fill="#407bff"/>
      <circle id="Ellipse_27" data-name="Ellipse 27" cx="23.9" cy="23.9" r="23.9" transform="matrix(0.165, -0.986, 0.986, 0.165, 74.042, 370.56)" fill="#fff" opacity="0.6"/>
      <path id="Path_619" data-name="Path 619" d="M104,346.79c-5.68-1.74-9.2-7.92-9.2-7.92s-1.79-.1-1.88,1.52a7.93,7.93,0,0,0,2.36,5.9l-2.73-.15a9.07,9.07,0,0,0-2.89.31l-.91.24a3,3,0,0,0-2.11,3.6L88,355.6a6.6,6.6,0,0,0,7.37,5c2.78-.41,7.11-1,7.86-1.18h0l2-.16.67-11.91Z" fill="#fff"/>
      <rect id="Rectangle_103" data-name="Rectangle 103" width="9.81" height="15.68" rx="1.08" transform="translate(104.17 345.14)" fill="#407bff"/>
      <circle id="Ellipse_28" data-name="Ellipse 28" cx="23.9" cy="23.9" r="23.9" transform="translate(128.365 350.945) rotate(-45)" fill="#407bff"/>
      <circle id="Ellipse_29" data-name="Ellipse 29" cx="23.9" cy="23.9" r="23.9" transform="translate(128.365 350.945) rotate(-45)" fill="#fff" opacity="0.6"/>
      <path id="Path_620" data-name="Path 620" d="M174.07,342.4a8.42,8.42,0,0,0-11.91,0,8.422,8.422,0,0,0-11.91,11.91l11.91,11.91,11.91-11.91a8.44,8.44,0,0,0,0-11.91Z" fill="#407bff"/>
      <path id="Path_621" data-name="Path 621" d="M207.75,142.92v242H360.33v-242Zm142.9,232.3H218.82V152.61H350.65Z" fill="#407bff"/>
      <path id="Path_622" data-name="Path 622" d="M207.75,142.92v242H360.33v-242Zm142.9,232.3H218.82V152.61H350.65Z" fill="#fff" opacity="0.8"/>
    </g>
  </g>
</svg>
